<svg width="52" height="28" viewBox="0 0 52 28" fill="none" xmlns="http://www.w3.org/2000/svg">
<path d="M7.06796 9.14286L12.1165 2.28571L24.233 0L34.835 3.42857L44.932 4.57143L52 14.8571L47.4563 24.5714L35.3398 27.4286L17.6699 26.2857L7.57282 28L0 24.5714V14.8571L7.06796 9.14286Z" fill="#EB2A2A"/>
<path d="M15.22 10.99H17.49L18.74 12.89L19.98 10.99H22.28L19.98 14.34L22.48 18H20.15L18.74 15.93L17.34 18H15.06L17.55 14.43L15.22 10.99ZM23.084 18V11H25.034V15.11L27.924 11H29.784V18H27.834V13.9L24.954 18H23.084ZM32.8371 18V12.13L33.2771 12.57H30.6871V11H36.9271V12.57H34.3471L34.7871 12.13V18H32.8371Z" fill="white"/>
</svg>
