<svg width="55" height="142" viewBox="0 0 55 142" fill="none" xmlns="http://www.w3.org/2000/svg">
<path d="M7.29289 0.292893C7.68342 -0.0976311 8.31658 -0.0976311 8.70711 0.292893L15.0711 6.65685C15.4616 7.04738 15.4616 7.68054 15.0711 8.07107C14.6805 8.46159 14.0474 8.46159 13.6569 8.07107L8 2.41421L2.34315 8.07107C1.95262 8.46159 1.31946 8.46159 0.928932 8.07107C0.538408 7.68054 0.538408 7.04738 0.928932 6.65685L7.29289 0.292893ZM28 141L28 142L28 141ZM54 140C54.5523 140 55 140.448 55 141C55 141.552 54.5523 142 54 142L54 140ZM9 1L9 2.11111L7 2.11111L7 1L9 1ZM9 4.33333L9 6.55556L7 6.55556L7 4.33333L9 4.33333ZM9 8.77778L9 11L7 11L7 8.77778L9 8.77778ZM9 13.2222L9 15.4444L7 15.4444L7 13.2222L9 13.2222ZM9 17.6667L9 19.8889L7 19.8889L7 17.6667L9 17.6667ZM9 22.1111L9 24.3333L7 24.3333L7 22.1111L9 22.1111ZM9 26.5556L9 28.7778L7 28.7778L7 26.5556L9 26.5556ZM9 31L9 33.2222L7 33.2222L7 31L9 31ZM9 35.4444L9 37.6667L7 37.6667L7 35.4444L9 35.4444ZM9 39.8889L9 42.1111L7 42.1111L7 39.8889L9 39.8889ZM9 44.3333L9 46.5555L7 46.5555L7 44.3333L9 44.3333ZM9 48.7778L9 51L7 51L7 48.7778L9 48.7778ZM9 53.2222L9 55.4444L7 55.4444L7 53.2222L9 53.2222ZM9 57.6667L9 59.8889L7 59.8889L7 57.6667L9 57.6667ZM9 62.1111L9 64.3333L7 64.3333L7 62.1111L9 62.1111ZM9 66.5555L9 68.7778L7 68.7778L7 66.5555L9 66.5555ZM9 71L9 73.2222L7 73.2222L7 71L9 71ZM9 75.4444L9 77.6666L7 77.6666L7 75.4444L9 75.4444ZM9 79.8889L9 82.1111L7 82.1111L7 79.8889L9 79.8889ZM9 84.3333L9 86.5555L7 86.5555L7 84.3333L9 84.3333ZM9 88.7778L9 91L7 91L7 88.7778L9 88.7778ZM9 93.2222L9 95.4444L7 95.4444L7 93.2222L9 93.2222ZM9 97.6666L9 99.8889L7 99.8889L7 97.6666L9 97.6666ZM9 102.111L9 104.333L7 104.333L7 102.111L9 102.111ZM9 106.556L9 108.778L7 108.778L7 106.556L9 106.556ZM9 111L9 113.222L7 113.222L7 111L9 111ZM8.99999 115.444L8.99999 117.667L6.99999 117.667L6.99999 115.444L8.99999 115.444ZM8.99999 119.889L8.99999 121L6.99999 121L6.99999 119.889L8.99999 119.889ZM8.99999 121C8.99999 121.358 9.00989 121.714 9.02941 122.067L7.03246 122.177C7.01091 121.787 6.99999 121.395 6.99999 121L8.99999 121ZM9.26569 124.185C9.38489 124.892 9.54308 125.585 9.73796 126.263L7.81588 126.815C7.60031 126.066 7.42537 125.299 7.29356 124.518L9.26569 124.185ZM10.4413 128.273C10.7146 128.932 11.024 129.572 11.367 130.191L9.61743 131.16C9.23824 130.476 8.89615 129.768 8.59388 129.039L10.4413 128.273ZM12.5024 131.995C12.9148 132.575 13.359 133.131 13.8324 133.66L12.3415 134.994C11.8186 134.409 11.3279 133.795 10.8723 133.154L12.5024 131.995ZM15.3396 135.168C15.869 135.641 16.425 136.085 17.0051 136.498L15.8464 138.128C15.2054 137.672 14.5912 137.181 14.0064 136.658L15.3396 135.168ZM18.8085 137.633C19.4278 137.976 20.0682 138.285 20.7273 138.559L19.9612 140.406C19.2323 140.104 18.5241 139.762 17.8395 139.383L18.8085 137.633ZM22.7375 139.262C23.415 139.457 24.1081 139.615 24.8146 139.734L24.4819 141.706C23.7007 141.575 22.9341 141.4 22.1846 141.184L22.7375 139.262ZM26.9332 139.971C27.2862 139.99 27.6419 140 28 140L28 142C27.605 142 27.2125 141.989 26.8228 141.968L26.9332 139.971ZM28 140L29.0833 140L29.0833 142L28 142L28 140ZM31.25 140L33.4167 140L33.4167 142L31.25 142L31.25 140ZM35.5833 140L37.75 140L37.75 142L35.5833 142L35.5833 140ZM39.9167 140L42.0833 140L42.0833 142L39.9167 142L39.9167 140ZM44.25 140L46.4167 140L46.4167 142L44.25 142L44.25 140ZM48.5833 140L50.75 140L50.75 142L48.5833 142L48.5833 140ZM52.9167 140L54 140L54 142L52.9167 142L52.9167 140Z" fill="#E0E0E0"/>
</svg>
