<svg width="24" height="24" viewBox="0 0 24 24" fill="none" xmlns="http://www.w3.org/2000/svg">
<path fill-rule="evenodd" clip-rule="evenodd" d="M1.64062 3.38793C0.825 3.66702 0.274359 4.25727 0.0756563 5.06549C0.00782812 5.34126 0 6.06022 0 12C0 17.9398 0.00782812 18.6587 0.0756563 18.9345C0.276375 19.751 0.863953 20.37 1.6807 20.6256C1.97414 20.7173 2.12944 20.7187 12 20.7187C21.8706 20.7187 22.0259 20.7173 22.3193 20.6256C23.136 20.37 23.7236 19.751 23.9243 18.9345C23.9922 18.6587 24 17.9398 24 12C24 6.06022 23.9922 5.34126 23.9243 5.06549C23.7236 4.24902 23.136 3.62999 22.3193 3.37443C22.0258 3.28265 21.8723 3.28124 11.9834 3.28246L1.94531 3.28368L1.64062 3.38793ZM22.1179 4.8276C22.2435 4.89951 22.3694 5.02551 22.446 5.15572C22.5648 5.3578 22.5711 5.40196 22.5868 6.15233L22.6032 6.93749H12H1.39678L1.41356 6.15233C1.42917 5.42104 1.43822 5.35335 1.54542 5.16566C1.66153 4.96227 1.86253 4.80533 2.09831 4.73394C2.16886 4.71257 6.65625 4.69865 12.0703 4.70301L21.9141 4.71093L22.1179 4.8276ZM22.5703 9.35155V10.3359H12H1.42969L1.41694 9.39974C1.40995 8.88486 1.41455 8.43655 1.42725 8.40355C1.44586 8.35499 3.46327 8.3458 12.0103 8.35536L22.5703 8.36718V9.35155ZM22.5835 15.1992L22.5703 18.6328L22.446 18.8443C22.3694 18.9745 22.2435 19.1005 22.1179 19.1724L21.9141 19.2891H12H2.08594L1.88213 19.1724C1.75655 19.1005 1.63059 18.9745 1.554 18.8443L1.42969 18.6328L1.41652 15.1992L1.40334 11.7656H12H22.5967L22.5835 15.1992ZM3.30188 13.5139C3.28903 13.5474 3.28439 13.8691 3.29156 14.2288L3.30469 14.8828H12H20.6953V14.1797V13.4766L12.0103 13.4647C4.9162 13.455 3.321 13.464 3.30188 13.5139ZM3.28125 16.5469V17.25H4.42969H5.57812V16.5469V15.8437H4.42969H3.28125V16.5469ZM7.07812 16.5469V17.25H8.22656H9.375V16.5469V15.8437H8.22656H7.07812V16.5469ZM10.8594 15.875C10.8422 15.8922 10.8281 16.2086 10.8281 16.5781V17.25H12H13.1719V16.5469V15.8437H12.0313C11.4039 15.8437 10.8765 15.8578 10.8594 15.875ZM14.625 16.5469V17.25H15.7734H16.9219V16.5469V15.8437H15.7734H14.625V16.5469ZM18.4219 16.5469V17.25H19.5703H20.7188V16.5469V15.8437H19.5703H18.4219V16.5469Z" fill="#23236B"/>
</svg>
