<svg width="32" height="32" viewBox="0 0 32 32" fill="none" xmlns="http://www.w3.org/2000/svg">
<path fill-rule="evenodd" clip-rule="evenodd" d="M15.9996 28.4C22.8479 28.4 28.3996 22.8483 28.3996 16C28.3996 15.2116 28.326 14.4404 28.1854 13.6929C23.0297 15.0185 18.7681 17.4688 15.5404 20.0241C12.5245 22.4116 10.4531 24.8571 9.40666 26.504C11.3164 27.7052 13.5769 28.4 15.9996 28.4ZM7.14491 24.6807C7.17315 24.2737 7.21116 23.886 7.26008 23.5113C7.06223 23.8199 6.90483 24.0807 6.77909 24.2912C6.89825 24.4237 7.02022 24.5535 7.14491 24.6807ZM10.3577 19.5992L10.4389 19.6339C9.87871 20.941 9.52392 22.0319 9.31786 23.2668C10.5643 21.7693 12.2383 20.0874 14.299 18.456C16.6348 16.6068 19.4904 14.8041 22.82 13.4H18.8209C15.1679 15.2647 12.5194 17.4038 10.6367 19.3123C10.5418 19.4085 10.4488 19.5041 10.3577 19.5992ZM23.492 11.4C24.6003 11.0076 25.7763 10.6441 27.0237 10.3173C27.2052 10.6687 27.3705 11.03 27.5184 11.4H23.492ZM23.5389 8.22444C24.2552 8.20779 24.9528 8.19158 25.6231 8.17958C23.3494 5.38515 19.883 3.60001 15.9996 3.60001C12.5499 3.60001 9.42917 5.00872 7.18137 7.28228C10.1636 8.01596 13.6758 8.25334 17.1817 8.29507C19.0535 8.31736 20.9066 8.28397 22.6599 8.24463C22.955 8.23801 23.2475 8.23121 23.537 8.22448L23.5381 8.22446L23.5389 8.22444ZM3.59961 16C3.59961 13.5674 4.30009 11.2984 5.51035 9.38372C5.73481 10.4961 6.16198 12.0935 7.25893 13.5978C6.57601 15.0812 5.9512 17.3506 5.48641 19.326C5.28942 20.1632 5.11597 20.9712 4.97444 21.6807C4.09578 19.9788 3.59961 18.0473 3.59961 16ZM15.9996 30.4C23.9525 30.4 30.3996 23.9529 30.3996 16C30.3996 8.0471 23.9525 1.60001 15.9996 1.60001C8.04671 1.60001 1.59961 8.0471 1.59961 16C1.59961 23.9529 8.04671 30.4 15.9996 30.4ZM7.56987 9.42191C7.8112 10.4714 8.22316 11.6906 9.19909 12.8292L9.65771 13.3643L9.30808 13.9761C8.67152 15.0901 7.97835 17.4674 7.43325 19.784L7.40099 19.9218C7.91648 19.2916 8.51717 18.613 9.21293 17.9077C11.7182 15.3681 15.4391 12.4993 20.8204 10.2813C19.6288 10.3004 18.3989 10.3097 17.1579 10.2949C13.9272 10.2565 10.5718 10.0554 7.56987 9.42191Z" fill="#23236B"/>
</svg>
