<svg width="10" height="10" viewBox="0 0 10 10" fill="none" xmlns="http://www.w3.org/2000/svg">
<path fill-rule="evenodd" clip-rule="evenodd" d="M0 4.99997C0 2.23997 2.24 -3.05176e-05 5 -3.05176e-05C7.76 -3.05176e-05 10 2.23997 10 4.99997C10 7.75997 7.76 9.99997 5 9.99997C2.24 9.99997 0 7.75997 0 4.99997ZM2.1332 5.37973L3.76812 6.8779C3.94573 7.04066 4.23719 7.04066 4.41024 6.8779L7.86679 3.71045C8.0444 3.5477 8.0444 3.28479 7.86679 3.12204C7.68918 2.95928 7.40228 2.95928 7.22467 3.12204L4.09146 5.99319L2.77533 4.79131C2.59772 4.62856 2.31081 4.62856 2.1332 4.79131C2.04792 4.86928 2 4.97513 2 5.08552C2 5.19591 2.04792 5.30176 2.1332 5.37973Z" fill="#00982B"/>
</svg>
