<svg width="24" height="24" viewBox="0 0 24 24" fill="none" xmlns="http://www.w3.org/2000/svg">
<path fill-rule="evenodd" clip-rule="evenodd" d="M2.71875 12V24H12H21.2812V14.5428V5.08561L18.7381 2.54283L16.195 0H9.45689H2.71875V12ZM15.1875 3.75V6.09375H17.5312H19.875V14.3438V22.5938H12H4.125V12V1.40625H9.65625H15.1875V3.75ZM17.7656 3.58594L18.8664 4.6875H17.7301H16.5938V3.58594C16.5938 2.98008 16.6097 2.48438 16.6293 2.48438C16.6488 2.48438 17.1602 2.98008 17.7656 3.58594ZM5.71875 3.67941V4.40625H9.79809H13.8774L13.8645 3.69141L13.8516 2.97656L9.78516 2.96456L5.71875 2.95261V3.67941ZM5.71875 6.04688V6.75H9.79688H13.875V6.04688V5.34375H9.79688H5.71875V6.04688ZM5.71875 14.3906V21.0469H12H18.2812V14.3906V7.73438H12H5.71875V14.3906ZM9.04688 9.60938V10.0781H8.08594H7.125V9.60938V9.14062H8.08594H9.04688V9.60938ZM16.875 9.60938V10.0781H13.6641H10.4531V9.60938V9.14062H13.6641H16.875V9.60938ZM9.04688 12V12.4688H8.08594H7.125V12V11.5312H8.08594H9.04688V12ZM16.875 12V12.4688H13.6641H10.4531V12V11.5312H13.6641H16.875V12ZM9.04688 14.3906V14.8594H8.08594H7.125V14.3906V13.9219H8.08594H9.04688V14.3906ZM16.875 14.3906V14.8594H13.6641H10.4531V14.3906V13.9219H13.6641H16.875V14.3906ZM9.04688 16.7588V17.2519L8.09766 17.2393L7.14844 17.2266L7.1348 16.8084C7.12725 16.5784 7.13189 16.3622 7.14502 16.3279C7.16381 16.279 7.37016 16.2656 8.10792 16.2656H9.04688V16.7588ZM16.8516 16.7578V17.2266H13.6641H10.4766L10.4629 16.8084C10.4554 16.5784 10.4601 16.362 10.4733 16.3276C10.4931 16.276 11.0584 16.2671 13.6744 16.277L16.8516 16.2891V16.7578ZM9.04688 19.125V19.5938H8.08594H7.125V19.125V18.6562H8.08594H9.04688V19.125ZM16.875 19.125V19.5938H13.6641H10.4531V19.125V18.6562H13.6641H16.875V19.125Z" fill="#23236B"/>
</svg>
