<svg width="24" height="24" viewBox="0 0 24 24" fill="none" xmlns="http://www.w3.org/2000/svg">
<path fill-rule="evenodd" clip-rule="evenodd" d="M12.2112 23.0366C18.5214 23.0366 23.636 17.9611 23.636 11.6999C23.636 5.4388 18.522 0.363281 12.2112 0.363281C5.90116 0.363281 0.786069 5.4388 0.786069 11.6999C0.786069 13.8418 1.38521 15.8453 2.4255 17.5536L0.363281 23.636L6.68855 21.626C8.32592 22.5246 10.2079 23.0366 12.2112 23.0366ZM17.5509 14.5917C17.7574 14.6988 17.8969 14.7712 17.957 14.8775C18.0303 15.0096 18.0303 15.6438 17.7849 16.3844C17.5379 17.1238 16.3325 17.8373 15.7916 17.89C15.6989 17.8991 15.622 17.9191 15.5432 17.9395C15.1621 18.0384 14.7361 18.149 12.2485 17.0981C9.4747 15.9257 7.64642 13.0158 7.26858 12.4144C7.23756 12.365 7.21631 12.3312 7.20513 12.3152L7.20464 12.3145C7.05478 12.1008 5.99963 10.5961 5.99963 9.03877C5.99963 7.58028 6.6672 6.81536 6.97461 6.46312C6.99574 6.43891 7.01517 6.41665 7.03256 6.39625C7.30327 6.07931 7.62331 6 7.82014 6C7.92186 6 8.02366 6.00709 8.12204 6.01394C8.214 6.02034 8.30297 6.02654 8.38608 6.02654C8.40672 6.02654 8.42841 6.02503 8.45101 6.02345C8.61741 6.01186 8.83368 5.99681 9.05017 6.55486C9.12898 6.75822 9.24325 7.05657 9.36458 7.37333C9.62178 8.04484 9.91068 8.79911 9.96069 8.90669C10.0348 9.0656 10.0842 9.25046 9.98523 9.46185C9.97117 9.49226 9.95811 9.52102 9.94563 9.54853C9.87122 9.7125 9.81702 9.83192 9.69026 9.99047C9.64139 10.0517 9.59087 10.1177 9.54033 10.1837C9.43833 10.3169 9.33622 10.4503 9.24726 10.5453C9.09978 10.7031 8.94576 10.8744 9.11777 11.1913C9.29006 11.5088 9.88272 12.5454 10.7603 13.3851C11.7043 14.2883 12.5245 14.6701 12.9397 14.8635C13.0206 14.9011 13.0861 14.9316 13.1342 14.9574C13.4297 15.116 13.6017 15.0895 13.774 14.8775C13.9466 14.6661 14.5125 13.9529 14.7091 13.6357C14.9056 13.3188 15.103 13.3718 15.3737 13.4774C15.6436 13.5826 17.0955 14.3495 17.391 14.5078C17.448 14.5384 17.5014 14.5661 17.5509 14.5917Z" fill="#323232"/>
</svg>
