<svg width="24" height="24" viewBox="0 0 24 24" fill="none" xmlns="http://www.w3.org/2000/svg">
<path d="M0.423911 11.5723L5.95399 13.6363L8.09447 20.5201C8.23143 20.9609 8.77055 21.1239 9.12839 20.8313L12.211 18.3184C12.5341 18.0551 12.9943 18.042 13.332 18.2871L18.8918 22.3237C19.2746 22.6019 19.817 22.3921 19.913 21.9296L23.9858 2.33829C24.0906 1.83301 23.5942 1.41149 23.113 1.59757L0.417431 10.3529C-0.142649 10.5689 -0.137769 11.3618 0.423911 11.5723ZM7.74951 12.5376L18.5574 5.88101C18.7516 5.76173 18.9514 6.02437 18.7846 6.17909L9.86503 14.4703C9.55151 14.7621 9.34927 15.1527 9.29199 15.5766L8.98815 17.8283C8.94791 18.1289 8.52559 18.1588 8.44263 17.8678L7.27407 13.7618C7.14023 13.2935 7.33527 12.7933 7.74951 12.5376Z" fill="white"/>
</svg>
