<svg width="16" height="14" viewBox="0 0 16 14" fill="none" xmlns="http://www.w3.org/2000/svg">
<path d="M2.95782 13.1413L3.27023 13.5317L2.95782 13.1413ZM4.58129 11.8422L4.89369 12.2325L4.58129 11.8422ZM4.72092 11.5085L4.5598 11.9818L4.72092 11.5085ZM1.52581 8.15387L2.00648 8.01617L1.52581 8.15387ZM1.83301 6.10413C1.83301 3.61885 3.84773 1.60413 6.33301 1.60413V0.604126C3.29544 0.604126 0.833008 3.06656 0.833008 6.10413H1.83301ZM1.83301 6.77409V6.10413H0.833008V6.77409H1.83301ZM2.00648 8.01617C1.89362 7.62223 1.83301 7.20566 1.83301 6.77409H0.833008C0.833008 7.29975 0.906892 7.80899 1.04515 8.29158L2.00648 8.01617ZM1.83301 12.3606V8.24686H0.833008V12.3606H1.83301ZM2.64541 12.7509C2.31804 13.0129 1.83301 12.7798 1.83301 12.3606H0.833008C0.833008 13.6184 2.28812 14.3176 3.27023 13.5317L2.64541 12.7509ZM4.26888 11.4518L2.64541 12.7509L3.27023 13.5317L4.89369 12.2325L4.26888 11.4518ZM6.333 11.2741C5.82448 11.2741 5.33664 11.1899 4.88204 11.0352L4.5598 11.9818C5.1168 12.1714 5.71343 12.2741 6.333 12.2741V11.2741ZM9.66634 11.2741H6.333V12.2741H9.66634V11.2741ZM14.1663 6.77409C14.1663 9.25937 12.1516 11.2741 9.66634 11.2741V12.2741C12.7039 12.2741 15.1663 9.81165 15.1663 6.77409H14.1663ZM14.1663 6.10413V6.77409H15.1663V6.10413H14.1663ZM9.66634 1.60413C12.1516 1.60413 14.1663 3.61884 14.1663 6.10413H15.1663C15.1663 3.06656 12.7039 0.604126 9.66634 0.604126V1.60413ZM6.33301 1.60413H9.66634V0.604126H6.33301V1.60413ZM4.89369 12.2325C5.16502 12.0154 5.19682 11.6144 4.9631 11.3572L4.22305 12.0298C4.06873 11.8599 4.08973 11.5951 4.26888 11.4518L4.89369 12.2325ZM1.79757 7.87404C1.45677 7.49904 0.833008 7.74014 0.833008 8.24686H1.83301C1.83301 8.65424 1.33152 8.84808 1.05753 8.54659L1.79757 7.87404ZM4.9631 11.3572C5.12349 11.5337 5.0666 11.7464 4.99977 11.8424C4.93429 11.9364 4.76922 12.0531 4.5598 11.9818L4.88204 11.0352C4.56729 10.928 4.30088 11.0961 4.1791 11.271C4.05598 11.4478 3.98783 11.7709 4.22305 12.0298L4.9631 11.3572ZM1.04515 8.29158C0.977637 8.05592 1.11254 7.8647 1.24789 7.78665C1.38492 7.70762 1.62681 7.68614 1.79757 7.87404L1.05753 8.54659C1.26802 8.77821 1.56717 8.75689 1.74747 8.65292C1.92609 8.5499 2.09026 8.30861 2.00648 8.01617L1.04515 8.29158Z" fill="black"/>
<ellipse cx="4.69954" cy="6.47232" rx="0.833333" ry="0.833591" fill="black"/>
<ellipse cx="8.03255" cy="6.47232" rx="0.833333" ry="0.833591" fill="black"/>
<ellipse cx="11.3665" cy="6.47232" rx="0.833333" ry="0.833591" fill="black"/>
</svg>
