<svg width="25" height="24" viewBox="0 0 25 24" fill="none" xmlns="http://www.w3.org/2000/svg">
<path fill-rule="evenodd" clip-rule="evenodd" d="M2.63225 0.969844C1.382 1.17858 0.338285 2.17158 0.078082 3.3998C-0.0260273 3.89142 -0.0260273 20.1086 0.078082 20.6002C0.309457 21.6924 1.12175 22.5691 2.25725 22.9521C2.50414 23.0354 2.88266 23.0396 11.1747 23.0515C18.7222 23.0624 19.8777 23.055 20.1714 22.9937C21.0398 22.8126 21.8778 22.1644 22.2646 21.3744C22.5815 20.7274 22.601 20.5947 22.601 19.0917V17.7656H23.3041H24.0073V14.4153V11.065L23.3158 11.052L22.6244 11.0391L22.6125 5.98828L22.6006 0.9375L12.675 0.943875C7.21593 0.947391 2.69671 0.959063 2.63225 0.969844ZM21.1948 2.83594V3.32812H16.7416H12.2885V4.03125V4.73438H16.7416H21.1948V5.22713V5.71988L11.9487 5.70759L2.70257 5.69531L2.43369 5.56931C1.92388 5.33034 1.53571 4.81617 1.46352 4.28409C1.34333 3.39844 1.95964 2.53612 2.81657 2.39105C2.93432 2.37108 7.11763 2.35228 12.1127 2.34928L21.1948 2.34375V2.83594ZM7.36663 4.03125V4.73438H9.12444H10.8823V4.03125V3.32812H9.12444H7.36663V4.03125ZM1.79122 6.83086C2.45488 7.14666 1.70779 7.125 11.932 7.125H21.1948V9.09375V11.0625H16.2494H11.3041V14.4141V17.7656H16.2528H21.2014L21.1864 19.0676L21.1713 20.3695L21.0175 20.6817C20.8304 21.0615 20.5005 21.3735 20.1261 21.5248L19.8588 21.6328H11.3041H2.74944L2.44475 21.4877C1.89702 21.227 1.55736 20.7735 1.45874 20.1713C1.40568 19.8472 1.39583 6.63933 1.44866 6.66652C1.46802 6.67645 1.62214 6.75042 1.79122 6.83086ZM8.9135 14.4141V17.7656H9.61663H10.3198V14.4141V11.0625H9.61663H8.9135V14.4141ZM22.601 14.3906V16.3125H17.6557H12.7104V14.3906V12.4688H17.6557H22.601V14.3906ZM20.1262 13.5035C19.6318 13.7545 19.4466 14.3834 19.7151 14.8995C20.0361 15.5164 20.9897 15.5495 21.4053 14.9582C21.5326 14.777 21.5463 14.7224 21.5463 14.3949C21.5463 14.0854 21.5291 14.0068 21.4291 13.8592C21.2367 13.5751 20.9858 13.436 20.6323 13.4173C20.3899 13.4045 20.2864 13.4221 20.1262 13.5035Z" fill="#23236B"/>
</svg>
