<svg width="48" height="48" viewBox="0 0 48 48" fill="none" xmlns="http://www.w3.org/2000/svg">
<path fill-rule="evenodd" clip-rule="evenodd" d="M20.4159 2.62791L16.8787 5.24203L13.7816 4.62244C12.0783 4.28166 10.6632 4.02431 10.637 4.05056C10.6107 4.07681 10.2854 5.62097 9.91397 7.482L9.23859 10.8658L4.61934 14.2638L0 17.6618V32.8309V48H24H48V32.8273V17.6545L44.7189 15.2412C41.8794 13.1526 41.4443 12.8005 41.4857 12.6248C41.512 12.5132 41.6319 11.9306 41.7522 11.3302L41.9709 10.2384L39.1984 9.68953L36.4259 9.14062L35.0176 8.1045C34.2431 7.53469 31.4486 5.47809 28.8077 3.53419C26.1668 1.59037 23.9941 0.00309257 23.9796 0.00684257C23.965 0.0105926 22.3613 1.19006 20.4159 2.62791ZM26.912 5.63541C28.4615 6.7755 29.7132 7.72425 29.6938 7.74366C29.6744 7.76316 27.6365 7.37925 25.1652 6.89062C22.6939 6.402 20.6572 6.00169 20.6393 6.00112C20.5508 5.99812 23.8757 3.57628 23.9771 3.56991C24.0418 3.56587 25.3626 4.49531 26.912 5.63541ZM25.8281 9.89634C32.7891 11.2752 38.5225 12.4373 38.5692 12.4787C38.6187 12.5227 38.273 14.4609 37.7389 17.1338L36.8237 21.7138L30.4117 24.9194L23.9995 28.125L17.0623 24.6562C11.9387 22.0942 10.125 21.1454 10.125 21.0272C10.125 20.8588 12.7243 7.63678 12.7993 7.42322C12.8232 7.35525 12.9169 7.31972 13.0073 7.34437C13.0978 7.36903 18.8672 8.51737 25.8281 9.89634ZM14.7793 11.834C14.6428 12.5182 14.5312 13.1471 14.5312 13.2313C14.5312 13.3593 15.5581 13.5877 20.7422 14.6129C24.1583 15.2885 27.0556 15.8524 27.1809 15.866C27.4019 15.8899 27.4168 15.8505 27.6798 14.5458C27.8289 13.8061 27.9373 13.1896 27.9207 13.1759C27.9042 13.1621 25.0641 12.5939 21.6094 11.9132C18.1547 11.2324 15.2604 10.6562 15.1777 10.6327C15.0534 10.5972 14.9846 10.8045 14.7793 11.834ZM30.4364 15.1039C30.2934 15.8313 30.1933 16.4434 30.214 16.464C30.2347 16.4846 31.2742 16.7068 32.5238 16.9577C34.0746 17.269 34.8071 17.3804 34.8307 17.3085C34.9287 17.0083 35.3524 14.6961 35.3159 14.6597C35.2655 14.6092 31.0494 13.782 30.8404 13.7815C30.7298 13.7813 30.6358 14.0892 30.4364 15.1039ZM7.94625 17.4141C7.66866 18.8012 7.42969 19.7803 7.36912 19.7789C7.31222 19.7776 6.55641 19.4045 5.68959 18.9498L4.11356 18.123L6.24525 16.5625C7.41778 15.7043 8.38669 15.0121 8.3985 15.0245C8.41031 15.0368 8.20678 16.1122 7.94625 17.4141ZM42.6797 17.2416C43.3371 17.7211 43.875 18.1298 43.875 18.15C43.875 18.2095 40.1081 20.0769 40.0684 20.0372C40.0344 20.0032 40.7401 16.3229 40.834 16.0444C40.8667 15.9476 40.9503 15.9714 41.1807 16.1433C41.3477 16.2678 42.0223 16.762 42.6797 17.2416ZM13.6558 17.4968C13.515 18.2513 13.4118 18.878 13.4265 18.8894C13.4411 18.9008 16.9639 19.6047 21.2547 20.4535L29.0564 21.9968L29.1528 21.5218C29.5452 19.5898 29.6083 19.2646 29.5936 19.2499C29.5782 19.2345 14.0016 16.125 13.9398 16.125C13.9244 16.125 13.7965 16.7423 13.6558 17.4968ZM13.4882 26.0039L24.0232 31.279L34.5475 25.9989C40.3358 23.0948 45.0978 20.7188 45.1297 20.7188C45.1614 20.7188 45.1875 26.2242 45.1875 32.9531V45.1875H24H2.8125V32.9531C2.8125 26.2242 2.84409 20.721 2.88281 20.7237C2.92153 20.7264 7.69387 23.1025 13.4882 26.0039Z" fill="#23236B"/>
</svg>
