<svg width="32" height="32" viewBox="0 0 32 32" fill="none" xmlns="http://www.w3.org/2000/svg">
<path d="M24.4375 10.3125V6.5625C24.4375 2.94385 21.4937 0 17.875 0H14.125C10.5063 0 7.5625 2.94385 7.5625 6.5625V10.3125C7.5625 14.9648 11.3477 18.75 16 18.75C20.6523 18.75 24.4375 14.9648 24.4375 10.3125ZM14.125 1.875H17.875C20.1387 1.875 22.0327 3.48804 22.4683 5.625H9.53174C9.96729 3.48804 11.8613 1.875 14.125 1.875ZM22.4014 7.5C22.0142 8.59106 20.9722 9.375 19.75 9.375H12.25C11.0278 9.375 9.98584 8.59106 9.59863 7.5H22.4014ZM16 16.875C12.3813 16.875 9.4375 13.9312 9.4375 10.3125V10.3101C10.2214 10.8999 11.1956 11.25 12.25 11.25H19.75C20.8044 11.25 21.7786 10.8999 22.5625 10.3101V10.3125C22.5625 13.9312 19.6187 16.875 16 16.875Z" fill="#23236B"/>
<path d="M16 13.125C15.2488 13.125 14.5425 12.8325 14.0112 12.3013L12.6855 13.627C13.5708 14.5125 14.748 15 16 15C17.252 15 18.4292 14.5125 19.3145 13.627L17.9888 12.3013C17.4575 12.8325 16.7512 13.125 16 13.125Z" fill="#23236B"/>
<path d="M23.5 18.75H8.5C5.91528 18.75 3.8125 20.8528 3.8125 23.4375V32H28.1875V23.4375C28.1875 20.8528 26.0847 18.75 23.5 18.75ZM15.0625 24.375H16.9375V26.25H15.0625V24.375ZM18.8125 28.125V24.375H22.5625V30.125H9.4375V24.375H13.1875V28.125H18.8125ZM26.3125 30.125H24.4375V22.5H7.5625V30.125H5.6875V23.4375C5.6875 21.8867 6.94922 20.625 8.5 20.625H23.5C25.0508 20.625 26.3125 21.8867 26.3125 23.4375V30.125Z" fill="#23236B"/>
</svg>
