<svg width="32" height="32" viewBox="0 0 32 32" fill="none" xmlns="http://www.w3.org/2000/svg">
<path d="M25.7509 9.97284C26.0455 9.78046 26.1933 9.68384 26.5905 9.68384C26.9876 9.68384 27.1356 9.7804 27.4303 9.97284C27.8143 10.2235 28.3401 10.5669 29.2953 10.5669C30.2504 10.5669 30.7762 10.2235 31.1602 9.97284C31.4549 9.7804 31.6028 9.68384 32 9.68384V7.80885C31.0449 7.80885 30.5191 8.15222 30.1351 8.40291C29.8404 8.59534 29.6925 8.6919 29.2953 8.6919C28.898 8.6919 28.7501 8.59534 28.4554 8.40291C28.0714 8.15222 27.5456 7.80885 26.5905 7.80885C25.6354 7.80885 25.1096 8.15222 24.7257 8.40291C24.431 8.59528 24.2832 8.6919 23.8861 8.6919C23.489 8.6919 23.3411 8.59534 23.0464 8.40291C22.8088 8.24772 22.5166 8.05728 22.1022 7.93447C19.8025 5.20855 16.3635 3.47368 12.5263 3.47368C5.61929 3.47374 0 9.09297 0 16C0 22.907 5.61929 28.5262 12.5263 28.5262C16.4917 28.5262 20.0322 26.6736 22.329 23.789C22.6848 23.9938 23.1618 24.1911 23.886 24.1911C24.8411 24.1911 25.3669 23.8478 25.7508 23.5971C26.0455 23.4047 26.1933 23.3081 26.5904 23.3081C26.9876 23.3081 27.1355 23.4046 27.4302 23.5971C27.8142 23.8478 28.34 24.1911 29.2952 24.1911C30.2503 24.1911 30.7761 23.8478 31.1601 23.5971C31.4548 23.4046 31.6027 23.3081 31.9999 23.3081V21.4331C31.0448 21.4331 30.519 21.7765 30.135 22.0272C29.8403 22.2196 29.6924 22.3162 29.2952 22.3162C28.8979 22.3162 28.75 22.2196 28.4553 22.0272C28.0713 21.7765 27.5455 21.4331 26.5904 21.4331C25.6353 21.4331 25.1095 21.7765 24.7256 22.0272C24.431 22.2195 24.2832 22.3162 23.886 22.3162C23.6678 22.3162 23.5248 22.2868 23.3914 22.2286C23.8659 21.4041 24.2484 20.5203 24.5268 19.5921C25.0953 19.4837 25.463 19.2437 25.7508 19.0557C26.0454 18.8633 26.1932 18.7667 26.5903 18.7667C26.9875 18.7667 27.1355 18.8632 27.4301 19.0557C27.8141 19.3064 28.34 19.6497 29.2951 19.6497C30.2503 19.6497 30.7761 19.3064 31.1601 19.0557C31.4548 18.8632 31.6026 18.7667 31.9999 18.7667V16.8917C31.0448 16.8917 30.5189 17.2351 30.1349 17.4857C29.8403 17.6782 29.6924 17.7747 29.2951 17.7747C28.8979 17.7747 28.75 17.6782 28.4553 17.4857C28.0713 17.2351 27.5455 16.8917 26.5903 16.8917C25.8311 16.8917 25.3436 17.1087 24.9826 17.3236C25.0285 16.8886 25.0525 16.4471 25.0525 16C25.0525 15.6346 25.0358 15.273 25.005 14.9154C25.3172 14.7967 25.5532 14.6433 25.7508 14.5142C26.0455 14.3218 26.1933 14.2252 26.5904 14.2252C26.9876 14.2252 27.1355 14.3218 27.4302 14.5142C27.8142 14.7649 28.34 15.1082 29.2952 15.1082C30.2503 15.1082 30.7761 14.7649 31.1601 14.5142C31.4548 14.3218 31.6027 14.2252 31.9999 14.2252V12.3502C31.0448 12.3502 30.519 12.6936 30.135 12.9443C29.8403 13.1367 29.6924 13.2333 29.2952 13.2333C28.8979 13.2333 28.75 13.1367 28.4553 12.9443C28.0713 12.6936 27.5455 12.3502 26.5904 12.3502C25.6353 12.3502 25.1095 12.6936 24.7256 12.9443C24.7106 12.9541 24.6962 12.9634 24.6819 12.9728C24.4729 12.1339 24.1799 11.328 23.811 10.5651C23.8362 10.5656 23.8603 10.5668 23.8861 10.5668C24.8412 10.567 25.367 10.2235 25.7509 9.97284ZM20.3421 9.9729C20.615 9.79459 20.7624 9.69877 21.0984 9.68565C21.7689 10.5935 22.2986 11.6111 22.6556 12.7063C22.3091 12.5189 21.851 12.3503 21.1816 12.3503C21.1801 12.3503 21.1787 12.3504 21.1772 12.3504C20.8531 11.5851 20.4301 10.8715 19.9247 10.2254C20.0841 10.1411 20.2204 10.0525 20.3421 9.9729ZM12.5263 26.6513C6.65316 26.6513 1.87499 21.8732 1.87499 16C1.87499 10.1268 6.65316 5.34873 12.5263 5.34873C15.2987 5.34873 17.8268 6.41385 19.7238 8.15591C19.5688 8.23853 19.4359 8.32522 19.3169 8.40297C19.0222 8.59534 18.8744 8.69197 18.4773 8.69197C18.4549 8.69197 18.4336 8.69153 18.4127 8.69097C16.8013 7.39066 14.7533 6.61079 12.5263 6.61079C7.34903 6.61079 3.13699 10.8228 3.13699 16.0001C3.13699 21.1773 7.34903 25.3893 12.5263 25.3893C14.3134 25.3893 15.9855 24.8872 17.4091 24.0169C17.6939 24.1189 18.0403 24.1911 18.4773 24.1911C18.9016 24.1911 19.2409 24.1232 19.521 24.0259C17.6484 25.66 15.201 26.6513 12.5263 26.6513ZM19.3168 17.4859C19.0222 17.6782 18.8744 17.7749 18.4772 17.7749C18.0801 17.7749 17.9323 17.6783 17.6377 17.4859C17.2537 17.2351 16.728 16.8918 15.7729 16.8918V18.7668C16.17 18.7668 16.3179 18.8634 16.6124 19.0558C16.9964 19.3065 17.5221 19.6499 18.4772 19.6499C18.7196 19.6499 18.934 19.6276 19.1257 19.5905C18.6594 20.4441 18.0324 21.1977 17.2856 21.8105C16.9347 21.6148 16.4677 21.4331 15.7731 21.4331V22.776C14.7898 23.249 13.6884 23.5143 12.5263 23.5143C8.38291 23.5143 5.01198 20.1434 5.01198 16.0001C5.01198 11.8567 8.38291 8.48578 12.5263 8.48578C13.6884 8.48578 14.7898 8.75109 15.7731 9.22415V9.68396C16.1701 9.68396 16.318 9.78052 16.6126 9.97296C16.8557 10.1318 17.1563 10.3275 17.5864 10.4498C18.3373 11.135 18.9492 11.97 19.3742 12.9071C19.3548 12.9197 19.3356 12.9323 19.3169 12.9444C19.0222 13.1368 18.8744 13.2334 18.4773 13.2334C18.0802 13.2334 17.9324 13.1369 17.6377 12.9444C17.2538 12.6937 16.7281 12.3504 15.773 12.3504V14.2254C16.1701 14.2254 16.3179 14.3219 16.6125 14.5144C16.9964 14.7651 17.5222 15.1084 18.4773 15.1084C19.1377 15.1084 19.5927 14.9443 19.9376 14.7601C20.0049 15.1636 20.0405 15.5777 20.0405 16.0001C20.0405 16.3833 20.0115 16.7599 19.9559 17.1277C19.6957 17.2391 19.4913 17.3719 19.3168 17.4859ZM21.6651 21.4652C21.5171 21.4448 21.3567 21.4331 21.1816 21.4331C20.7008 21.4331 20.3289 21.5202 20.029 21.6386C20.6682 20.7903 21.1672 19.8309 21.4909 18.7946C21.6844 18.8359 21.8179 18.923 22.0212 19.0557C22.1872 19.164 22.3798 19.2896 22.6219 19.3974C22.3765 20.1249 22.0541 20.8172 21.6651 21.4652ZM23.0712 17.502C23.063 17.4966 23.055 17.4914 23.0465 17.4859C22.7663 17.3029 22.4098 17.0712 21.867 16.9591C21.8992 16.6437 21.9157 16.3238 21.9157 16.0001C21.9157 15.4407 21.8663 14.8927 21.772 14.36C21.8488 14.4018 21.9277 14.4532 22.0214 14.5144C22.2897 14.6896 22.6278 14.9096 23.1328 15.0266C23.1618 15.3472 23.1776 15.6718 23.1776 16.0001C23.1776 16.5098 23.1408 17.0111 23.0712 17.502Z" fill="#23236B"/>
</svg>
