<svg width="24" height="24" viewBox="0 0 24 24" fill="none" xmlns="http://www.w3.org/2000/svg">
<g clip-path="url(#clip0_2195_5866)">
<path fill-rule="evenodd" clip-rule="evenodd" d="M1.68707 1.68755C0 3.37462 0 6.08989 0 11.5205V12.4805C0 17.9111 0 20.6263 1.68707 22.3134C3.37413 24.0005 6.0894 24.0005 11.52 24.0005H12.48C17.9106 24.0005 20.6259 24.0005 22.313 22.3134C24 20.6263 24 17.9111 24 12.4805V11.5205C24 6.08989 24 3.37462 22.313 1.68755C20.6259 0.000488281 17.9106 0.000488281 12.48 0.000488281H11.52C6.0894 0.000488281 3.37413 0.000488281 1.68707 1.68755ZM4.05103 7.30029C4.18103 13.5403 7.30098 17.2903 12.771 17.2903H13.0811V13.7203C15.0911 13.9203 16.6109 15.3903 17.2209 17.2903H20.061C19.281 14.4503 17.2309 12.8803 15.9509 12.2803C17.2309 11.5403 19.0309 9.74029 19.4609 7.30029H16.8809C16.3209 9.28029 14.6611 11.0803 13.0811 11.2503V7.30029H10.501V14.2203C8.90098 13.8203 6.88103 11.8803 6.79103 7.30029H4.05103Z" fill="white"/>
</g>
<defs>
<clipPath id="clip0_2195_5866">
<rect width="24" height="24" fill="white" transform="translate(0 0.000488281)"/>
</clipPath>
</defs>
</svg>
