<svg width="80" height="80" viewBox="0 0 80 80" fill="none" xmlns="http://www.w3.org/2000/svg">
<path fill-rule="evenodd" clip-rule="evenodd" d="M80 40C80 62.0914 62.0914 80 40 80C17.9086 80 0 62.0914 0 40C0 17.9086 17.9086 0 40 0C62.0914 0 80 17.9086 80 40ZM18.7161 35.5963C18.7161 31.1375 22.3307 27.5229 26.7895 27.5229C31.2484 27.5229 34.8629 31.1375 34.8629 35.5963C34.8629 40.0551 31.2484 43.6697 26.7895 43.6697C22.3307 43.6697 18.7161 40.0551 18.7161 35.5963ZM26.7895 19.4495C17.8719 19.4495 10.6428 26.6787 10.6428 35.5963C10.6428 40.3556 12.7019 44.634 15.9778 47.5892L11.0097 56.1468L16.6312 61.1519L22.4103 51.1422C23.803 51.5337 25.2718 51.7431 26.7895 51.7431C35.7072 51.7431 42.9363 44.514 42.9363 35.5963C42.9363 26.6787 35.7072 19.4495 26.7895 19.4495ZM46.5105 28.6061C45.7267 26.395 44.5816 24.3548 43.1461 22.5565C49.8593 17.8794 59.1605 18.5347 65.1484 24.5227C71.8722 31.2465 71.8722 42.148 65.1484 48.8718L52.9738 61.0465L41.9429 50.0155C43.5488 48.3283 44.8759 46.3733 45.8502 44.2243C47.6844 45.9296 50.1428 46.9725 52.8448 46.9725C58.5196 46.9725 63.12 42.3721 63.12 36.6973C63.12 31.0224 58.5196 26.422 52.8448 26.422C50.455 26.422 48.2558 27.2378 46.5105 28.6061Z" fill="url(#paint0_linear_2264_9002)"/>
<defs>
<linearGradient id="paint0_linear_2264_9002" x1="40" y1="0" x2="40" y2="80" gradientUnits="userSpaceOnUse">
<stop stop-color="#A38BD5"/>
<stop offset="1" stop-color="#654D9E"/>
</linearGradient>
</defs>
</svg>
