<svg width="32" height="33" viewBox="0 0 32 33" fill="none" xmlns="http://www.w3.org/2000/svg">
<path fill-rule="evenodd" clip-rule="evenodd" d="M11.4123 3.13132C7.83351 4.51075 6.8947 4.89544 6.8017 5.02069C6.68957 5.17163 6.68495 5.40363 6.68676 10.7358C6.68888 16.7328 6.67463 16.4706 7.00788 16.6489C7.28957 16.7997 15.729 20.0371 15.9119 20.0645C16.0588 20.0866 17.1466 19.6929 20.4432 18.4246C22.8291 17.5068 24.8583 16.7161 24.9525 16.6676C25.3314 16.4728 25.311 16.8087 25.3131 10.7358C25.3149 5.42038 25.31 5.17113 25.1992 5.02069C25.1067 4.89519 24.1758 4.5135 20.5885 3.13032C18.1164 2.17713 16.0515 1.39769 15.9999 1.39825C15.9484 1.39875 13.8839 2.17869 11.4123 3.13132ZM19.3748 4.09094C21.1796 4.78325 22.6786 5.3695 22.7059 5.39375C22.7333 5.418 21.2373 6.02194 19.3816 6.73588L16.0077 8.03388L12.6283 6.73569C10.7696 6.02169 9.26426 5.42207 9.28313 5.40313C9.34907 5.33726 15.8447 2.846 15.9685 2.83913C16.0372 2.83532 17.57 3.39863 19.3748 4.09094ZM11.6562 7.79263L15.2812 9.18876L15.2972 13.7917C15.306 16.3234 15.2919 18.3952 15.2659 18.3958C15.2399 18.3964 13.5944 17.7729 11.6093 17.0103L7.99995 15.6238V11.0092C7.99995 8.47126 8.00701 6.39513 8.01557 6.39563C8.02413 6.39613 9.66245 7.02475 11.6562 7.79263ZM23.9999 11.0105V15.6263L20.3433 17.0338L16.6866 18.4414L16.7027 13.8149L16.7187 9.18851L20.3124 7.79819C22.289 7.03357 23.9273 6.40494 23.9531 6.40132C23.9789 6.39769 23.9999 8.47182 23.9999 11.0105ZM3.31245 19.8007C1.63482 20.4184 0.607572 21.1303 0.200447 21.9572C-0.0428656 22.4514 -0.0391156 23.0977 0.209822 23.5748C0.835384 24.7734 2.7732 25.7355 5.99995 26.4493C8.16645 26.9286 10.4336 27.1984 13.841 27.3823L14.6509 27.4259L14.0669 27.8604C13.3992 28.3572 13.2589 28.5745 13.3764 28.9303C13.4715 29.2184 13.7106 29.3947 14.0064 29.3947C14.2196 29.3947 14.4103 29.2716 15.7384 28.277C16.5593 27.6623 17.2493 27.1116 17.2717 27.0531C17.3327 26.8941 17.3209 26.6066 17.2466 26.4436C17.1871 26.3131 14.5984 24.3204 14.2697 24.1521C13.9414 23.984 13.4983 24.1772 13.3783 24.5408C13.2613 24.8954 13.4016 25.1275 14.0092 25.5841C14.2963 25.7999 14.5576 25.9998 14.5898 26.0285C14.622 26.0571 14.3267 26.0656 13.9335 26.0473C8.89545 25.8125 5.12676 25.1348 2.8437 24.0531C1.70657 23.5144 1.20026 23.0039 1.37782 22.5753C1.59245 22.0571 2.50038 21.5207 4.26688 20.8684C4.75976 20.6865 4.90638 20.1968 4.57807 19.8293C4.31907 19.5395 4.03895 19.5331 3.31245 19.8007ZM27.4971 19.7541C27.3614 19.8753 27.2946 20.0017 27.2703 20.1827C27.2186 20.5686 27.4348 20.7675 28.2187 21.0546C29.4759 21.515 30.434 22.1212 30.6221 22.5753C30.7804 22.9576 30.3988 23.403 29.4999 23.8848C27.8753 24.7556 24.9906 25.4444 21.4736 25.8016C20.9263 25.8571 20.4044 25.9409 20.3139 25.9877C19.8925 26.2056 19.9104 26.9359 20.3419 27.1325C20.5621 27.2328 20.7213 27.2279 22.0312 27.0804C28.5873 26.3424 32.1989 24.7157 31.9805 22.5991C31.865 21.4804 30.7039 20.5092 28.6043 19.7751C27.92 19.5359 27.745 19.5326 27.4971 19.7541Z" fill="white"/>
</svg>
