<svg width="18" height="14" viewBox="0 0 18 14" fill="none" xmlns="http://www.w3.org/2000/svg">
<mask id="path-1-inside-1_2567_11661" fill="white">
<path fill-rule="evenodd" clip-rule="evenodd" d="M4.5 6.5H1.5C0.95 6.5 0.5 6.05 0.5 5.5V1.5C0.5 0.95 0.95 0.5 1.5 0.5H4.5C5.05 0.5 5.5 0.95 5.5 1.5V5.5C5.5 6.05 5.05 6.5 4.5 6.5ZM4.5 13.5H1.5C0.95 13.5 0.5 13.05 0.5 12.5V8.5C0.5 7.95 0.95 7.5 1.5 7.5H4.5C5.05 7.5 5.5 7.95 5.5 8.5V12.5C5.5 13.05 5.05 13.5 4.5 13.5ZM7.5 13.5H10.5C11.05 13.5 11.5 13.05 11.5 12.5V8.5C11.5 7.95 11.05 7.5 10.5 7.5H7.5C6.95 7.5 6.5 7.95 6.5 8.5V12.5C6.5 13.05 6.95 13.5 7.5 13.5ZM16.5 13.5H13.5C12.95 13.5 12.5 13.05 12.5 12.5V8.5C12.5 7.95 12.95 7.5 13.5 7.5H16.5C17.05 7.5 17.5 7.95 17.5 8.5V12.5C17.5 13.05 17.05 13.5 16.5 13.5ZM7.5 6.5H10.5C11.05 6.5 11.5 6.05 11.5 5.5V1.5C11.5 0.95 11.05 0.5 10.5 0.5H7.5C6.95 0.5 6.5 0.95 6.5 1.5V5.5C6.5 6.05 6.95 6.5 7.5 6.5ZM12.5 5.5V1.5C12.5 0.95 12.95 0.5 13.5 0.5H16.5C17.05 0.5 17.5 0.95 17.5 1.5V5.5C17.5 6.05 17.05 6.5 16.5 6.5H13.5C12.95 6.5 12.5 6.05 12.5 5.5Z"/>
</mask>
<path d="M1.5 8H4.5V5H1.5V8ZM-1 5.5C-1 6.87843 0.121573 8 1.5 8V5C1.77843 5 2 5.22157 2 5.5H-1ZM-1 1.5V5.5H2V1.5H-1ZM1.5 -1C0.121573 -1 -1 0.121573 -1 1.5H2C2 1.77843 1.77843 2 1.5 2V-1ZM4.5 -1H1.5V2H4.5V-1ZM7 1.5C7 0.121573 5.87843 -1 4.5 -1V2C4.22157 2 4 1.77843 4 1.5H7ZM7 5.5V1.5H4V5.5H7ZM4.5 8C5.87843 8 7 6.87843 7 5.5H4C4 5.22157 4.22157 5 4.5 5V8ZM1.5 15H4.5V12H1.5V15ZM-1 12.5C-1 13.8784 0.121573 15 1.5 15V12C1.77843 12 2 12.2216 2 12.5H-1ZM-1 8.5V12.5H2V8.5H-1ZM1.5 6C0.121573 6 -1 7.12157 -1 8.5H2C2 8.77843 1.77843 9 1.5 9V6ZM4.5 6H1.5V9H4.5V6ZM7 8.5C7 7.12157 5.87843 6 4.5 6V9C4.22157 9 4 8.77843 4 8.5H7ZM7 12.5V8.5H4V12.5H7ZM4.5 15C5.87843 15 7 13.8784 7 12.5H4C4 12.2216 4.22157 12 4.5 12V15ZM10.5 12H7.5V15H10.5V12ZM10 12.5C10 12.2216 10.2216 12 10.5 12V15C11.8784 15 13 13.8784 13 12.5H10ZM10 8.5V12.5H13V8.5H10ZM10.5 9C10.2216 9 10 8.77843 10 8.5H13C13 7.12157 11.8784 6 10.5 6V9ZM7.5 9H10.5V6H7.5V9ZM8 8.5C8 8.77843 7.77843 9 7.5 9V6C6.12157 6 5 7.12157 5 8.5H8ZM8 12.5V8.5H5V12.5H8ZM7.5 12C7.77843 12 8 12.2216 8 12.5H5C5 13.8784 6.12157 15 7.5 15V12ZM13.5 15H16.5V12H13.5V15ZM11 12.5C11 13.8784 12.1216 15 13.5 15V12C13.7784 12 14 12.2216 14 12.5H11ZM11 8.5V12.5H14V8.5H11ZM13.5 6C12.1216 6 11 7.12157 11 8.5H14C14 8.77843 13.7784 9 13.5 9V6ZM16.5 6H13.5V9H16.5V6ZM19 8.5C19 7.12157 17.8784 6 16.5 6V9C16.2216 9 16 8.77843 16 8.5H19ZM19 12.5V8.5H16V12.5H19ZM16.5 15C17.8784 15 19 13.8784 19 12.5H16C16 12.2216 16.2216 12 16.5 12V15ZM10.5 5H7.5V8H10.5V5ZM10 5.5C10 5.22157 10.2216 5 10.5 5V8C11.8784 8 13 6.87843 13 5.5H10ZM10 1.5V5.5H13V1.5H10ZM10.5 2C10.2216 2 10 1.77843 10 1.5H13C13 0.121573 11.8784 -1 10.5 -1V2ZM7.5 2H10.5V-1H7.5V2ZM8 1.5C8 1.77843 7.77843 2 7.5 2V-1C6.12157 -1 5 0.121573 5 1.5H8ZM8 5.5V1.5H5V5.5H8ZM7.5 5C7.77843 5 8 5.22157 8 5.5H5C5 6.87843 6.12157 8 7.5 8V5ZM11 1.5V5.5H14V1.5H11ZM13.5 -1C12.1216 -1 11 0.121573 11 1.5H14C14 1.77843 13.7784 2 13.5 2V-1ZM16.5 -1H13.5V2H16.5V-1ZM19 1.5C19 0.121572 17.8784 -1 16.5 -1V2C16.2216 2 16 1.77843 16 1.5H19ZM19 5.5V1.5H16V5.5H19ZM16.5 8C17.8784 8 19 6.87843 19 5.5H16C16 5.22157 16.2216 5 16.5 5V8ZM13.5 8H16.5V5H13.5V8ZM11 5.5C11 6.87843 12.1216 8 13.5 8V5C13.7784 5 14 5.22157 14 5.5H11Z" fill="black" mask="url(#path-1-inside-1_2567_11661)"/>
</svg>
