<svg width="38" height="48" viewBox="0 0 38 48" fill="none" xmlns="http://www.w3.org/2000/svg">
<path fill-rule="evenodd" clip-rule="evenodd" d="M0.71875 8.4375V16.875H11.0815H21.4442L26.4153 19.6927C29.1494 21.2423 31.4471 22.5336 31.5213 22.5621C31.6369 22.6064 31.6562 22.2026 31.6562 19.7444V16.875H34.4688H37.2812V8.4375V0H19H0.71875V8.4375ZM34.4688 8.4375V14.0625H31.6582H28.8476L28.8223 15.9346L28.7969 17.8067L25.4961 15.9346L22.1955 14.0625H12.8633H3.53125V8.4375V2.8125H19H34.4688V8.4375ZM9.15625 8.4375V9.84375H10.5625H11.9688V8.4375V7.03125H10.5625H9.15625V8.4375ZM14.7812 8.4375V9.84375H16.1875H17.5938V8.4375V7.03125H16.1875H14.7812V8.4375ZM20.4062 8.4375V9.84375H21.8125H23.2188V8.4375V7.03125H21.8125H20.4062V8.4375ZM26.0312 8.4375V9.84375H27.4375H28.8438V8.4375V7.03125H27.4375H26.0312V8.4375ZM0.71875 33.9375V42.375H3.52984H6.34103L6.36578 45.1763L6.39062 47.9776L11.4531 45.1812L16.5156 42.3848L26.8984 42.3799L37.2812 42.375V33.9375V25.5H19H0.71875V33.9375ZM34.4688 33.9375V39.5625H25.1489H15.8289L12.5161 41.3886L9.20312 43.2145L9.17772 41.3886L9.15231 39.5625H6.34178H3.53125V33.9375V28.3125H19H34.4688V33.9375ZM9.15625 33.9375V35.3438H10.5625H11.9688V33.9375V32.5312H10.5625H9.15625V33.9375ZM14.7812 33.9375V35.3438H16.1875H17.5938V33.9375V32.5312H16.1875H14.7812V33.9375ZM20.4062 33.9375V35.3438H21.8125H23.2188V33.9375V32.5312H21.8125H20.4062V33.9375ZM26.0312 33.9375V35.3438H27.4375H28.8438V33.9375V32.5312H27.4375H26.0312V33.9375Z" fill="#23236B"/>
</svg>
