<svg width="24" height="28" viewBox="0 0 24 28" fill="none" xmlns="http://www.w3.org/2000/svg">
<path d="M21.1902 5.12923C19.0765 2.12395 15.7266 0.399994 12.0001 0.399994C8.27367 0.399994 4.92379 2.12395 2.81011 5.12923C0.706802 8.11932 0.221141 11.9049 1.50838 15.2493C1.85268 16.1627 2.39999 17.05 3.13121 17.8815L11.2631 27.2652C11.447 27.4776 11.7165 27.6 12.0001 27.6C12.2838 27.6 12.5532 27.4776 12.7371 27.2652L20.8668 17.8841C21.6012 17.0478 22.1478 16.1614 22.4893 15.2554C23.7791 11.9049 23.2935 8.11932 21.1902 5.12923ZM20.6764 14.5893C20.4131 15.2883 19.9833 15.9794 19.3995 16.6442C19.3979 16.6458 19.3963 16.6474 19.395 16.6493L12.0001 25.1821L4.60074 16.6439C4.01731 15.9798 3.58745 15.2887 3.32156 14.583C2.25701 11.817 2.66102 8.68712 4.4026 6.21091C6.14965 3.72679 8.91902 2.30208 12.0001 2.30208C15.0812 2.30208 17.8502 3.72673 19.5973 6.21091C21.3392 8.68712 21.7436 11.817 20.6764 14.5893Z" fill="#23236B"/>
<path d="M12.0004 6.00003C8.91272 6.00003 6.40039 8.33259 6.40039 11.2C6.40039 14.0675 8.91238 16.4 12.0004 16.4C15.0884 16.4 17.6004 14.0675 17.6004 11.2C17.6004 8.3329 15.0881 6.00003 12.0004 6.00003ZM12.0004 14.5429C10.0154 14.5429 8.40037 13.0432 8.40037 11.2C8.40037 9.35675 10.0154 7.85711 12.0004 7.85711C13.9854 7.85711 15.6004 9.35675 15.6004 11.2C15.6004 13.0432 13.9854 14.5429 12.0004 14.5429Z" fill="#23236B"/>
</svg>
