<svg width="40" height="24" viewBox="0 0 40 24" fill="none" xmlns="http://www.w3.org/2000/svg">
<g clip-path="url(#clip0_2567_10463)">
<path d="M40 12.0004C40 18.585 34.6462 24.0004 28 24.0004C21.4154 24.0004 16 18.585 16 12.0004C16 5.41575 21.3538 0.000366211 27.9385 0.000366211C34.6462 0.000366211 40 5.41575 40 12.0004Z" fill="#F9B50B"/>
<path d="M23.9385 12.0619C23.9385 11.2004 23.8154 10.3388 23.6923 9.53883H16.3077C16.3692 9.10806 16.4923 8.73883 16.6154 8.24652H23.2C23.0769 7.81575 22.8923 7.38498 22.7077 6.95421H17.1077C17.2923 6.52344 17.5385 6.15421 17.7846 5.6619H22.0308C21.7846 5.23114 21.4769 4.80037 21.1077 4.3696H18.7692C19.1385 3.93883 19.5077 3.5696 20 3.13883C17.9077 1.1696 15.0769 0.000366211 11.9385 0.000366211C5.41538 0.184982 0 5.41575 0 12.0004C0 18.585 5.35385 24.0004 12 24.0004C15.1385 24.0004 17.9077 22.7696 20.0615 20.8619C20.4923 20.4927 20.8615 20.0619 21.2923 19.5696H18.8308C18.5231 19.2004 18.2154 18.7696 17.9692 18.3388H22.1538C22.4 17.9696 22.6462 17.5388 22.8308 17.0465H17.2308C17.0462 16.6773 16.8615 16.2465 16.7385 15.7542H23.3231C23.6923 14.6465 23.9385 13.4158 23.9385 12.0619Z" fill="#C8191C"/>
<path d="M16.2461 15.0775L16.4307 13.9698C16.3691 13.9698 16.2461 14.0313 16.123 14.0313C15.6922 14.0313 15.6307 13.7852 15.6922 13.6621L16.0614 11.4467H16.7384L16.923 10.2159H16.3076L16.4307 9.47748H15.1384C15.1384 9.47748 14.3999 13.6621 14.3999 14.1544C14.3999 14.8929 14.8307 15.2621 15.4461 15.2621C15.8153 15.2621 16.123 15.139 16.2461 15.0775Z" fill="white"/>
<path d="M16.6763 13.046C16.6763 14.8306 17.907 15.2614 18.8917 15.2614C19.8147 15.2614 20.2455 15.0768 20.2455 15.0768L20.4917 13.846C20.4917 13.846 19.8147 14.1537 19.1378 14.1537C17.7224 14.1537 17.9686 13.1075 17.9686 13.1075H20.5532C20.5532 13.1075 20.7378 12.3075 20.7378 11.9383C20.7378 11.1383 20.307 10.0921 18.8917 10.0921C17.6609 10.0306 16.6763 11.446 16.6763 13.046ZM18.8917 11.1998C19.5686 11.1998 19.4455 11.9998 19.4455 12.0614H18.0301C18.0917 11.9998 18.2147 11.1998 18.8917 11.1998Z" fill="white"/>
<path d="M26.9535 15.0768L27.1996 13.6614C27.1996 13.6614 26.5843 13.9691 26.092 13.9691C25.2304 13.9691 24.7996 13.2922 24.7996 12.4922C24.7996 10.9537 25.5381 10.1537 26.4612 10.1537C27.0766 10.1537 27.6304 10.5229 27.6304 10.5229L27.815 9.16908C27.815 9.16908 27.0766 8.86139 26.3381 8.86139C24.8612 8.86139 23.4458 10.1537 23.4458 12.5537C23.4458 14.1537 24.1843 15.1999 25.7227 15.1999C26.2766 15.2614 26.9535 15.0768 26.9535 15.0768Z" fill="white"/>
<path d="M9.2916 10.0316C8.43006 10.0316 7.75314 10.2778 7.75314 10.2778L7.56852 11.3855C7.56852 11.3855 8.12237 11.1393 8.98391 11.1393C9.41468 11.1393 9.78391 11.2008 9.78391 11.5701C9.78391 11.8162 9.72237 11.8778 9.72237 11.8778H9.16852C8.06083 11.8778 6.8916 12.3085 6.8916 13.7855C6.8916 14.9547 7.63006 15.2008 8.12237 15.2008C8.98391 15.2008 9.41468 14.647 9.47622 14.647L9.41468 15.1393H10.4608L10.9531 11.6316C10.9531 10.0932 9.72237 10.0316 9.2916 10.0316ZM9.53776 12.8624C9.53776 13.047 9.41468 14.0932 8.67622 14.0932C8.30699 14.0932 8.18391 13.7855 8.18391 13.6008C8.18391 13.2932 8.36852 12.8624 9.35314 12.8624C9.47622 12.8624 9.53776 12.8624 9.53776 12.8624Z" fill="white"/>
<path d="M12.1852 15.2004C12.4929 15.2004 14.0929 15.262 14.0929 13.5389C14.0929 11.9389 12.5544 12.2466 12.5544 11.6312C12.5544 11.3235 12.8006 11.2004 13.2313 11.2004C13.416 11.2004 14.0929 11.262 14.0929 11.262L14.2775 10.0927C14.2775 10.0927 13.8467 9.96967 13.0467 9.96967C12.1237 9.96967 11.139 10.3389 11.139 11.6312C11.139 13.1081 12.739 12.985 12.739 13.5389C12.739 13.9081 12.3083 13.9697 12.0006 13.9697C11.4467 13.9697 10.8313 13.785 10.8313 13.785L10.6467 14.9543C10.7698 15.0774 11.139 15.2004 12.1852 15.2004Z" fill="white"/>
<path d="M37.5378 9.04724L37.2916 10.7703C37.2916 10.7703 36.7993 10.1549 36.0608 10.1549C34.8916 10.1549 33.907 11.5703 33.907 13.2319C33.907 14.278 34.3993 15.3242 35.507 15.3242C36.2454 15.3242 36.7378 14.8319 36.7378 14.8319L36.6762 15.2626H37.9685L38.8916 9.17032L37.5378 9.04724ZM36.9224 12.3703C36.9224 13.0472 36.6147 13.9703 35.8762 13.9703C35.4454 13.9703 35.1993 13.6011 35.1993 12.9242C35.1993 11.878 35.6301 11.2626 36.2454 11.2626C36.6762 11.3242 36.9224 11.6319 36.9224 12.3703Z" fill="white"/>
<path d="M2.33868 15.1395L3.07714 10.5857L3.20022 15.1395H4.06176L5.72329 10.5857L5.04637 15.1395H6.40022L7.44637 9.04724H5.35406L4.06176 12.8011L4.00022 9.04724H2.15406L1.10791 15.1395H2.33868Z" fill="white"/>
<path d="M22.0304 15.1401C22.3996 13.0478 22.4611 11.3247 23.3842 11.6324C23.5073 10.8324 23.6919 10.4632 23.815 10.1555H23.5688C23.015 10.1555 22.5227 10.894 22.5227 10.894L22.6458 10.2171H21.415L20.615 15.1401H22.0304Z" fill="white"/>
<path d="M29.9076 10.0316C29.046 10.0316 28.3691 10.2778 28.3691 10.2778L28.1845 11.3855C28.1845 11.3855 28.7383 11.1393 29.5999 11.1393C30.0306 11.1393 30.3999 11.2008 30.3999 11.5701C30.3999 11.8162 30.3383 11.8778 30.3383 11.8778H29.7845C28.6768 11.8778 27.5076 12.3085 27.5076 13.7855C27.5076 14.9547 28.246 15.2008 28.7383 15.2008C29.5999 15.2008 30.0306 14.647 30.0922 14.647L30.0306 15.1393H31.1999L31.6922 11.6316C31.6922 10.0932 30.3383 10.0316 29.9076 10.0316ZM30.2153 12.8624C30.2153 13.047 30.0922 14.0932 29.3537 14.0932C28.9845 14.0932 28.8614 13.7855 28.8614 13.6008C28.8614 13.2932 29.046 12.8624 30.0306 12.8624C30.1537 12.8624 30.1537 12.8624 30.2153 12.8624Z" fill="white"/>
<path d="M32.6771 15.1401C33.0463 13.0478 33.1079 11.3247 34.0309 11.6324C34.154 10.8324 34.3386 10.4632 34.4617 10.1555H34.2156C33.6617 10.1555 33.1694 10.894 33.1694 10.894L33.2925 10.2171H32.0617L31.2617 15.1401H32.6771Z" fill="white"/>
</g>
<defs>
<clipPath id="clip0_2567_10463">
<rect width="40" height="24" fill="white" transform="translate(0 0.000366211)"/>
</clipPath>
</defs>
</svg>
