<svg width="59" height="16" viewBox="0 0 59 16" fill="none" xmlns="http://www.w3.org/2000/svg">
<path fill-rule="evenodd" clip-rule="evenodd" d="M5.45602 0.00309653C5.98312 -3.84111e-05 7.54966 -0.140305 8.21321 2.08611C8.66019 3.58585 9.3722 6.0425 10.3492 9.45604H10.7471C11.7949 5.85724 12.5147 3.4006 12.9065 2.08611C13.5769 -0.163497 15.2531 0.00314062 15.9236 0.00314062L21.0964 0.00314703V16.0003H15.8241V6.57292H15.4706L12.5316 16.0003H8.56484L5.62581 6.56594H5.27227V16.0003H0V0.00314703L5.45602 0.00309653ZM28.6673 0.00314703V9.43757H29.0879L32.6629 1.67971C33.3569 0.135875 34.836 0.00314703 34.836 0.00314703H39.938V16.0004H34.5556V6.56594H34.135L30.63 14.3238C29.9361 15.8607 28.3869 16.0004 28.3869 16.0004H23.2849V0.00314703H28.6673ZM58.5419 7.60513C57.7911 9.72025 55.4333 11.235 52.823 11.235H47.1785V16.0004H42.0601V7.60513H58.5419Z" fill="#0F754E"/>
<path fill-rule="evenodd" clip-rule="evenodd" d="M53.0686 0.0032959H41.7905C42.0589 3.56482 45.144 6.61372 48.3378 6.61372H58.8963C59.5056 3.65367 57.4081 0.0032959 53.0686 0.0032959Z" fill="url(#paint0_linear_2567_10482)"/>
<defs>
<linearGradient id="paint0_linear_2567_10482" x1="58.9998" y1="4.16154" x2="41.7905" y2="4.16154" gradientUnits="userSpaceOnUse">
<stop stop-color="#1F5CD7"/>
<stop offset="1" stop-color="#02AEFF"/>
</linearGradient>
</defs>
</svg>
