<svg width="16" height="17" viewBox="0 0 16 17" fill="none" xmlns="http://www.w3.org/2000/svg">
<path d="M3.33301 2.46942H12.6663V12.4383C12.6663 13.2687 11.7128 13.7373 11.0554 13.23L10.8915 13.1035C10.5566 12.8451 10.0954 12.8254 9.73968 13.0541L9.08143 13.4774C8.4225 13.9011 7.57685 13.9011 6.91792 13.4774L6.25967 13.0541C5.90392 12.8254 5.44272 12.8451 5.10787 13.1035L4.94393 13.23C4.28652 13.7373 3.33301 13.2687 3.33301 12.4383V2.46942Z" stroke="black"/>
<path d="M6 6.47078H8" stroke="black" stroke-linecap="round" stroke-linejoin="round"/>
<path d="M2 2.46956H14" stroke="black" stroke-linecap="round" stroke-linejoin="round"/>
<path d="M6 9.13826H8" stroke="black" stroke-linecap="round" stroke-linejoin="round"/>
<path d="M10 6.47078H10.3333" stroke="black" stroke-linecap="round" stroke-linejoin="round"/>
<path d="M10 9.13826H10.3333" stroke="black" stroke-linecap="round" stroke-linejoin="round"/>
</svg>
