<svg width="48" height="48" viewBox="0 0 48 48" fill="none" xmlns="http://www.w3.org/2000/svg">
<path fill-rule="evenodd" clip-rule="evenodd" d="M11.6563 0.862596C6.57782 1.55627 2.42085 5.28206 1.13897 10.2891C-0.32708 16.0153 2.38059 21.9565 7.69511 24.6742C8.08786 24.8752 8.43989 25.0508 8.47741 25.0647C8.51494 25.0786 7.88292 27.6481 7.07294 30.7747L5.60015 36.4596L5.03699 36.5742C2.60757 37.0685 0.730469 39.3875 0.730469 41.8944C0.730469 44.8414 3.24514 47.3561 6.19218 47.3561C8.70521 47.3561 11.004 45.4908 11.5201 43.0329C11.7033 42.1601 11.6903 41.4158 11.4772 40.5825C11.2064 39.5238 10.8125 38.8597 9.93827 37.9884L9.17209 37.2246L9.46583 36.0756C9.62732 35.4437 10.2786 32.9241 10.9132 30.4767L12.0669 26.0267L13.5242 26.0047C14.4558 25.9906 15.2548 25.9267 15.739 25.8276C17.3292 25.5022 19.013 24.8213 20.255 24.0017C20.6006 23.7736 20.9084 23.587 20.939 23.587C20.9696 23.587 21.7933 24.3863 22.7693 25.3634C24.326 26.9215 24.5303 27.1592 24.4331 27.2988C21.0085 32.2198 21.3031 38.4912 25.1705 42.9962C28.5081 46.8842 34.0802 48.3481 38.936 46.6125C45.3879 44.3066 48.8405 37.2671 46.7144 30.7537C45.6691 27.5515 43.2519 24.7836 40.2353 23.3346C39.8465 23.1478 39.5415 22.954 39.5576 22.9039C39.5738 22.8538 40.2192 20.3008 40.992 17.2305C42.3519 11.8278 42.4044 11.6467 42.6248 11.602C44.0682 11.3096 45.0541 10.7845 45.9065 9.85426C47.8989 7.67987 47.8228 4.44966 45.7299 2.3567C43.5591 0.185951 40.2332 0.185951 38.0624 2.3567C36.6653 3.7538 36.1342 5.63718 36.6112 7.50235C36.879 8.54961 37.2774 9.22662 38.1208 10.0675L38.8578 10.8023L37.4343 16.43L36.0107 22.0577L34.5587 22.08C33.6332 22.0942 32.8322 22.1584 32.3494 22.2572C30.7592 22.5826 29.0753 23.2635 27.8333 24.0831C27.4878 24.3112 27.1799 24.4978 27.1493 24.4978C27.1187 24.4978 26.2951 23.6985 25.319 22.7214C23.7624 21.1633 23.5581 20.9256 23.6553 20.786C26.0956 17.2792 26.6864 13.0947 25.2983 9.15057C23.3244 3.54276 17.5808 0.053336 11.6563 0.862596ZM14.8558 4.50249C20.7044 5.5267 24.0485 11.7844 21.5839 17.0922C21.216 17.8843 20.6152 18.8508 20.4905 18.8508C20.4495 18.8508 20.3235 18.697 20.2107 18.5092C19.8075 17.8374 19.0102 16.9218 18.434 16.4691L17.848 16.0085L18.1149 15.5397C19.3416 13.3857 18.9836 10.768 17.2213 9.00565C15.0506 6.83491 11.7247 6.83491 9.55391 9.00565C7.79166 10.768 7.43362 13.3857 8.66031 15.5397L8.92727 16.0085L8.34125 16.4691C7.76506 16.9218 6.96774 17.8374 6.56452 18.5092C6.45176 18.697 6.32579 18.8508 6.28472 18.8508C6.16002 18.8508 5.55925 17.8843 5.19137 17.0922C4.04037 14.6135 4.1259 11.6743 5.42035 9.21951C7.24107 5.7667 11.0894 3.84288 14.8558 4.50249ZM42.8629 4.65915C43.0341 4.77501 43.2863 5.03022 43.4232 5.22632C43.634 5.52807 43.6723 5.67608 43.6723 6.19041C43.6723 6.70475 43.634 6.85276 43.4232 7.15451C43.0071 7.75046 42.6008 7.9665 41.8962 7.9665C41.4009 7.9665 41.2296 7.92506 40.9545 7.7388C40.2546 7.26509 39.9449 6.46357 40.1571 5.67562C40.277 5.23023 40.875 4.59129 41.2923 4.4626C41.7422 4.32379 42.5089 4.4197 42.8629 4.65915ZM14.3544 11.3081C14.5256 11.424 14.7778 11.6792 14.9147 11.8753C15.1255 12.177 15.1637 12.325 15.1637 12.8394C15.1637 13.3537 15.1255 13.5017 14.9147 13.8035C14.4985 14.3994 14.0922 14.6155 13.3876 14.6155C12.8923 14.6155 12.7211 14.574 12.4459 14.3878C11.7461 13.914 11.4364 13.1125 11.6485 12.3246C11.7685 11.8792 12.3664 11.2403 12.7838 11.1116C13.2337 10.9727 14.0003 11.0687 14.3544 11.3081ZM14.3875 18.446C15.6151 18.7354 16.661 19.5607 17.2601 20.7129L17.589 21.3456L17.2669 21.5108C15.9694 22.1765 13.9973 22.506 12.4085 22.3228C11.4572 22.213 10.1803 21.8555 9.50837 21.5108L9.18621 21.3456L9.51511 20.7129C10.4595 18.8967 12.4233 17.983 14.3875 18.446ZM36.1689 25.8156C42.0175 26.8398 45.3616 33.0975 42.897 38.4052C42.5291 39.1974 41.9283 40.1638 41.8036 40.1638C41.7625 40.1638 41.6366 40.0102 41.5238 39.8223C41.1206 39.1505 40.3233 38.2349 39.7471 37.7822L39.1611 37.3216L39.428 36.8528C40.0695 35.7264 40.3 34.2953 40.0391 33.0595C39.5098 30.5526 37.2347 28.6908 34.7007 28.6908C32.1667 28.6908 29.8916 30.5526 29.3623 33.0595C29.1014 34.2953 29.3319 35.7264 29.9734 36.8528L30.2404 37.3216L29.6543 37.7822C29.0782 38.2349 28.2808 39.1505 27.8776 39.8223C27.7649 40.0102 27.6389 40.1638 27.5978 40.1638C27.4731 40.1638 26.8723 39.1974 26.5045 38.4052C25.3535 35.9265 25.439 32.9874 26.7334 30.5326C28.5542 27.0798 32.4025 25.156 36.1689 25.8156ZM35.6675 32.6212C35.8387 32.7371 36.0909 32.9923 36.2278 33.1884C36.4386 33.4901 36.4768 33.6381 36.4768 34.1525C36.4768 34.6668 36.4386 34.8148 36.2278 35.1166C35.8116 35.7125 35.4053 35.9286 34.7007 35.9286C34.2054 35.9286 34.0342 35.8871 33.759 35.7008C33.0592 35.2271 32.7495 34.4256 32.9616 33.6377C33.0816 33.1923 33.6795 32.5533 34.0968 32.4246C34.5468 32.2858 35.3134 32.3817 35.6675 32.6212ZM35.7006 39.7591C36.9282 40.0484 37.9741 40.8738 38.5732 42.026L38.9021 42.6587L38.58 42.8239C37.2825 43.4896 35.3104 43.8191 33.7216 43.6359C32.7703 43.5261 31.4934 43.1686 30.8215 42.8239L30.4993 42.6587L30.8282 42.026C31.7726 40.2098 33.7363 39.2961 35.7006 39.7591ZM7.15892 40.3631C7.33015 40.479 7.58235 40.7342 7.71925 40.9303C7.93001 41.2321 7.96827 41.3801 7.96827 41.8944C7.96827 42.4087 7.93001 42.5567 7.71925 42.8585C7.3031 43.4544 6.89678 43.6705 6.19218 43.6705C5.69688 43.6705 5.52564 43.629 5.25048 43.4428C4.55061 42.9691 4.24094 42.1675 4.45306 41.3796C4.57302 40.9342 5.17097 40.2953 5.58831 40.1666C6.03825 40.0278 6.80488 40.1237 7.15892 40.3631Z" fill="#23236B"/>
</svg>
