<svg width="22" height="23" viewBox="0 0 22 23" fill="none" xmlns="http://www.w3.org/2000/svg">
<path d="M9.97174 1.70944C10.4381 0.934269 11.5619 0.934268 12.0283 1.70944L14.3587 5.58295C14.5262 5.86142 14.7995 6.06003 15.1161 6.13337L19.5196 7.15355C20.4006 7.35766 20.7478 8.42603 20.1551 9.10908L17.1916 12.524C16.9787 12.7693 16.8744 13.0905 16.9024 13.4142L17.2933 17.9189C17.3715 18.8201 16.4624 19.4805 15.6295 19.1275L11.4682 17.364C11.169 17.2372 10.831 17.2372 10.5318 17.364L6.37047 19.1275C5.53763 19.4805 4.62855 18.8201 4.70673 17.9189L5.09756 13.4142C5.12564 13.0905 5.0213 12.7693 4.80837 12.524L1.84495 9.10908C1.2522 8.42603 1.59938 7.35766 2.48043 7.15355L6.88393 6.13337C7.20052 6.06003 7.47382 5.86142 7.64135 5.58296L9.97174 1.70944Z" stroke="black" stroke-width="1.5"/>
</svg>
