<svg width="42" height="42" viewBox="0 0 42 42" fill="none" xmlns="http://www.w3.org/2000/svg">
<path fill-rule="evenodd" clip-rule="evenodd" d="M4.46414 3.0175C2.81238 4.67715 1.3409 6.21319 1.19412 6.43101C0.817733 6.9897 0.406046 7.91116 0.193923 8.67003C-0.0467687 9.53084 -0.0663064 11.0752 0.151564 12.0121C0.427882 13.2007 2.56644 17.1761 4.44198 19.9878C10.2478 28.6917 18.4388 36.0945 27.336 40.6789C29.0856 41.5804 29.7963 41.8333 30.9393 41.961C32.4534 42.1302 34.0169 41.7457 35.383 40.8681C35.9004 40.5357 36.6624 39.8184 39.0188 37.4459L42 34.4442L36.31 28.7549C33.1805 25.6258 30.6015 23.0665 30.5788 23.0677C30.5561 23.0688 29.5265 24.0476 28.2908 25.2427C27.0551 26.4378 26.0111 27.4156 25.9709 27.4156C25.8477 27.4156 24.4843 26.5468 23.4885 25.8336C20.7129 23.8458 17.8128 20.9427 15.8792 18.2161C15.1731 17.2204 14.3245 15.8873 14.3245 15.7737C14.3245 15.7304 15.31 14.6914 16.5145 13.465L18.7043 11.2349L13.0858 5.61748L7.46728 0L4.46414 3.0175ZM24.0317 5.08596L21.5483 10.0014L22.0615 10.2865C22.3438 10.4433 22.9955 10.7819 23.5099 11.0389C24.2423 11.4048 24.4607 11.4824 24.5173 11.3969C24.6248 11.2346 29.4293 1.65932 29.4293 1.60736C29.4293 1.55639 26.6728 0.165628 26.5775 0.168501C26.5431 0.169568 25.3976 2.3824 24.0317 5.08596ZM31.2768 8.20959L26.5985 12.8875L27.7463 14.0372C28.3775 14.6696 28.9185 15.1776 28.9484 15.1661C28.9784 15.1547 31.0815 13.0466 33.622 10.4815L38.2412 5.81766L37.0981 4.67477L35.9549 3.53178L31.2768 8.20959ZM10.8283 7.98421L14.0772 11.2877L12.1828 13.1829L10.2886 15.0781L10.7733 16.0966C13.4714 21.7656 19.9298 28.2463 25.5443 30.9186C26.0489 31.1588 26.5133 31.3552 26.5764 31.3552C26.6396 31.3552 27.5537 30.5214 28.6078 29.5021L30.5244 27.649L33.9373 31.0613L37.3503 34.4735L35.5859 36.239C33.5811 38.245 33.213 38.5023 32.1017 38.6751C31.0431 38.8396 30.2546 38.5817 27.9927 37.3312C22.9616 34.5495 18.8761 31.4705 14.7291 27.3349C10.3304 22.9484 6.86794 18.2757 4.1824 13.1019C3.27604 11.3556 3.09675 10.6228 3.32931 9.61447C3.53791 8.70959 3.75816 8.41502 5.65225 6.50693C6.64933 5.5025 7.49076 4.68076 7.5222 4.68076C7.55364 4.68076 9.04138 6.16731 10.8283 7.98421ZM35.4493 14.4807C32.6876 15.8394 30.408 16.971 30.3835 16.9955C30.3486 17.0305 31.6631 19.8273 31.76 19.9243C31.7734 19.9376 34.0286 18.842 36.7717 17.4895C39.5148 16.1371 41.8016 15.0154 41.8536 14.997C41.9119 14.9762 41.6648 14.3971 41.2094 13.4869L40.4706 12.0105L35.4493 14.4807Z" fill="#23236B"/>
</svg>
