<svg width="12" height="12" viewBox="0 0 12 12" fill="none" xmlns="http://www.w3.org/2000/svg">
<path d="M0.387356 5.7912L3.06861 6.79691L4.10642 10.1511C4.17283 10.3659 4.43422 10.4453 4.60772 10.3028L6.10229 9.07831C6.25896 8.95002 6.4821 8.94363 6.64583 9.06307L9.34151 11.0299C9.52711 11.1655 9.79005 11.0633 9.8366 10.8379L11.8113 1.29183C11.8621 1.04563 11.6214 0.840235 11.3882 0.930905L0.384215 5.19702C0.11266 5.30227 0.115026 5.68864 0.387356 5.7912ZM3.93917 6.26155L9.17934 3.01806C9.27351 2.95994 9.37041 3.08791 9.28953 3.1633L4.96488 7.20329C4.81287 7.34549 4.71481 7.53579 4.68704 7.74235L4.53972 8.83951C4.52021 8.986 4.31545 9.00054 4.27523 8.85877L3.70865 6.85807C3.64376 6.62988 3.73832 6.38613 3.93917 6.26155Z" fill="#323232"/>
</svg>
