<svg width="24" height="24" viewBox="0 0 24 24" fill="none" xmlns="http://www.w3.org/2000/svg">
<g clip-path="url(#clip0_2264_14274)">
<path fill-rule="evenodd" clip-rule="evenodd" d="M24 12C24 18.6274 18.6274 24 12 24C5.37258 24 0 18.6274 0 12C0 5.37258 5.37258 0 12 0C18.6274 0 24 5.37258 24 12ZM12.4301 8.85954C11.263 9.34501 8.93026 10.3498 5.43201 11.8739C4.86395 12.0998 4.56638 12.3208 4.53929 12.5369C4.49351 12.9021 4.95084 13.0459 5.5736 13.2417C5.65831 13.2684 5.74608 13.296 5.83606 13.3252C6.44876 13.5244 7.27295 13.7574 7.70141 13.7666C8.09007 13.775 8.52385 13.6148 9.00276 13.286C12.2713 11.0796 13.9585 9.96442 14.0644 9.94038C14.1392 9.92342 14.2427 9.90209 14.3129 9.96446C14.3831 10.0268 14.3762 10.1449 14.3687 10.1766C14.3234 10.3698 12.5282 12.0387 11.5992 12.9024C11.3096 13.1716 11.1042 13.3626 11.0622 13.4062C10.9681 13.504 10.8722 13.5964 10.7801 13.6852C10.2109 14.2339 9.78403 14.6454 10.8037 15.3174C11.2937 15.6403 11.6859 15.9073 12.077 16.1737C12.5043 16.4647 12.9304 16.7549 13.4817 17.1163C13.6222 17.2083 13.7563 17.304 13.887 17.3971C14.3842 17.7516 14.8309 18.07 15.3827 18.0192C15.7034 17.9897 16.0346 17.6882 16.2028 16.789C16.6003 14.6638 17.3818 10.0591 17.5623 8.16158C17.5782 7.99534 17.5583 7.78258 17.5423 7.68918C17.5263 7.59579 17.4929 7.46272 17.3715 7.36421C17.2277 7.24755 17.0058 7.22295 16.9065 7.22469C16.4551 7.23265 15.7627 7.47343 12.4301 8.85954Z" fill="black"/>
</g>
<defs>
<clipPath id="clip0_2264_14274">
<rect width="24" height="24" fill="white"/>
</clipPath>
</defs>
</svg>
