<svg width="52" height="16" viewBox="0 0 52 16" fill="none" xmlns="http://www.w3.org/2000/svg">
<path d="M48.5029 0.22937H45.2339C44.2456 0.22937 43.4854 0.534132 43.0292 1.52461L36.7954 15.7722H41.2047C41.2047 15.7722 41.9649 13.8675 42.117 13.4103C42.5731 13.4103 46.9064 13.4103 47.5146 13.4103C47.6666 13.9437 48.0467 15.696 48.0467 15.696H51.9999L48.5029 0.22937ZM43.3333 10.2103C43.7134 9.29604 45.0058 5.86747 45.0058 5.86747C45.0058 5.94366 45.3859 4.95318 45.538 4.41985L45.8421 5.79127C45.8421 5.79127 46.6783 9.52461 46.8304 10.2865H43.3333V10.2103Z" fill="#3362AB"/>
<path d="M37.0998 10.667C37.0998 13.867 34.2109 16.0004 29.7256 16.0004C27.825 16.0004 26.0005 15.6194 25.0122 15.1623L25.6204 11.6575L26.1525 11.8861C27.5209 12.4956 28.4332 12.7242 30.1057 12.7242C31.3221 12.7242 32.6144 12.267 32.6144 11.2004C32.6144 10.5147 32.0823 10.0575 30.4098 9.2956C28.8133 8.5337 26.6847 7.31465 26.6847 5.10513C26.6847 2.05751 29.6496 0.000366211 33.8308 0.000366211C35.4273 0.000366211 36.7957 0.305128 37.6319 0.686081L37.0237 4.03846L36.7197 3.7337C35.9594 3.42894 34.9711 3.12418 33.5267 3.12418C31.9302 3.20037 31.17 3.88608 31.17 4.4956C31.17 5.18132 32.0823 5.71465 33.5267 6.40037C35.9594 7.54322 37.0998 8.83846 37.0998 10.667Z" fill="#3362AB"/>
<path d="M0 0.382521L0.0760224 0.0777588H6.61395C7.52622 0.0777588 8.21042 0.382521 8.43849 1.373L9.88291 8.23014C8.43849 4.573 5.0935 1.60157 0 0.382521Z" fill="#F9B50B"/>
<path d="M19.0818 0.227924L12.4678 15.6946H7.98252L4.1814 2.74221C6.9182 4.49459 9.19888 7.23745 10.0351 9.14221L10.4913 10.7422L14.5965 0.151733H19.0818V0.227924Z" fill="#3362AB"/>
<path d="M20.8302 0.151733H25.0115L22.3507 15.6946H18.1694L20.8302 0.151733Z" fill="#3362AB"/>
</svg>
