<svg width="120" height="120" viewBox="0 0 120 120" fill="none" xmlns="http://www.w3.org/2000/svg">
<path d="M31.5 33L59 22L89.5 29.5M31.5 33L55.5 38M31.5 33L25.4338 45.5M31.5 33C30.8333 31 29.2 25.6 28 20C26.4 26.4 25.6225 39.6667 25.4338 45.5M89.5 29.5L71.5 36.5M89.5 29.5L92 40.25M71.5 36.5L55.5 38M71.5 36.5L70.5 60L63.5 75M55.5 38L57.5 62.5L68 82.5L64.5 100M64.5 100L17 84.5L15 67L20.0956 56.5M64.5 100L109 82.5L103 54.5L94.5 51M94.5 51L92 40.25M94.5 51C96 44.5 98 38 103 31C98.2 33 93.6667 38 92 40.25M20.0956 56.5C19.5637 51.1667 17.2 38.8 12 32C20.8 36.8 24.6225 43 25.4338 45.5M20.0956 56.5L25.4338 45.5" stroke="black" stroke-width="4" stroke-linejoin="round"/>
</svg>
