<svg width="190" height="54" viewBox="0 0 190 54" fill="none" xmlns="http://www.w3.org/2000/svg">
<path d="M35.2813 1.81271C35.2838 1.17157 35.804 0.651454 36.4451 0.642136C40.5097 0.583061 43.7052 0.230259 47.4829 0.0741872C49.4047 -0.00521175 50.9674 1.56207 50.9446 3.48537C50.838 12.4915 50.3513 18.5759 50.314 28.115C50.3115 28.7561 49.7914 29.2763 49.1503 29.2856C45.0857 29.3446 41.8901 29.6975 38.1125 29.8535C36.1907 29.9329 34.628 28.3656 34.6507 26.4423C34.7574 17.4362 35.244 11.3518 35.2813 1.81271Z" fill="#5CA4F9"/>
<path d="M65.3634 20.4762V24.3381H63.5522V22.2068H57.4599V24.3381H55.6487V20.4762H56.3988C56.8379 20.0268 57.1794 19.371 57.4233 18.5087C57.6672 17.6465 57.8075 16.681 57.8441 15.6123L58.0636 9.45496H64.2291V20.4762H65.3634ZM62.3996 11.1856H59.8017L59.6187 16.1223C59.5456 17.9683 59.2101 19.4196 58.6125 20.4762H62.3996V11.1856Z" fill="#23236B"/>
<path d="M74.3585 20.4762V22.2068H67.9003V9.45496H74.1755V11.1856H69.7481V14.8836H73.8279V16.5778H69.7481V20.4762H74.3585Z" fill="#23236B"/>
<path d="M79.9191 16.6324L79.0775 17.8894V22.2068H77.248V9.45496H79.0775V14.9929L79.9191 13.4991L82.4804 9.45496H84.6392L80.9802 15.0111L85.1698 22.2068H83.0476L79.9191 16.6324Z" fill="#23236B"/>
<path d="M90.5916 22.4436C89.3719 22.4436 88.4145 22.0671 87.7193 21.3141C87.024 20.549 86.6764 19.4985 86.6764 18.1626V13.4991C86.6764 12.1632 87.024 11.1188 87.7193 10.3658C88.4145 9.60069 89.3719 9.21814 90.5916 9.21814C91.8113 9.21814 92.7687 9.60069 93.4639 10.3658C94.1592 11.1188 94.5068 12.1632 94.5068 13.4991V18.1626C94.5068 19.4985 94.1592 20.549 93.4639 21.3141C92.7687 22.0671 91.8113 22.4436 90.5916 22.4436ZM90.5916 20.6401C91.2502 20.6401 91.7503 20.4276 92.0918 20.0025C92.4333 19.5775 92.6041 18.9642 92.6041 18.1626V13.4991C92.6041 12.6976 92.4333 12.0843 92.0918 11.6592C91.7503 11.2341 91.2502 11.0216 90.5916 11.0216C89.933 11.0216 89.4329 11.2341 89.0914 11.6592C88.7499 12.0843 88.5791 12.6976 88.5791 13.4991V18.1626C88.5791 18.9642 88.7499 19.5775 89.0914 20.0025C89.4329 20.4276 89.933 20.6401 90.5916 20.6401Z" fill="#23236B"/>
<path d="M101.007 9.45496C102.264 9.45496 103.233 9.8193 103.916 10.548C104.599 11.2645 104.941 12.2725 104.941 13.572C104.941 14.9079 104.599 15.9341 103.916 16.6506C103.233 17.3672 102.264 17.7254 101.007 17.7254H99.4706V22.2068H97.6228V9.45496H101.007ZM100.989 15.9766C101.684 15.9766 102.203 15.7823 102.544 15.3937C102.886 14.9929 103.056 14.3857 103.056 13.572C103.056 11.9932 102.367 11.2038 100.989 11.2038H99.4706V15.9766H100.989Z" fill="#23236B"/>
<path d="M115.896 22.4254C114.75 22.4254 113.841 22.0792 113.17 21.387C112.512 20.6948 112.182 19.7171 112.182 18.4541V13.2076C112.182 11.9325 112.512 10.9487 113.17 10.2565C113.829 9.56426 114.732 9.21814 115.878 9.21814C117.049 9.21814 117.964 9.55819 118.622 10.2383C119.281 10.9062 119.635 11.8717 119.683 13.1348H117.854C117.805 12.3939 117.616 11.8474 117.287 11.4952C116.958 11.1431 116.482 10.967 115.86 10.967C115.299 10.967 114.86 11.1552 114.543 11.5317C114.225 11.9082 114.067 12.4668 114.067 13.2076V18.4541C114.067 19.1949 114.225 19.7536 114.543 20.13C114.872 20.4944 115.323 20.6765 115.896 20.6765C116.518 20.6765 116.994 20.5005 117.323 20.1483C117.665 19.7961 117.866 19.2556 117.927 18.527H119.757C119.696 19.7779 119.33 20.7433 118.659 21.4234C118 22.0914 117.079 22.4254 115.896 22.4254Z" fill="#23236B"/>
<path d="M128.926 20.4762V22.2068H122.468V9.45496H128.743V11.1856H124.316V14.8836H128.395V16.5778H124.316V20.4762H128.926Z" fill="#23236B"/>
<path d="M139.134 22.2068H137.286V11.2038H133.663V22.2068H131.815V9.45496H139.134V22.2068Z" fill="#23236B"/>
<path d="M148.831 11.2038H146.16V22.2068H144.276V11.2038H141.623V9.45496H148.831V11.2038Z" fill="#23236B"/>
<path d="M151.226 9.45496H153.037V15.0293C153.037 15.5272 153.018 16.1345 152.982 16.851C152.945 17.5675 152.896 18.1869 152.835 18.7091L152.89 18.7456C153.317 17.6283 153.622 16.8753 153.805 16.4867L156.915 9.45496H158.8V22.2068H156.988V16.6506C156.988 16.1648 157.001 15.5515 157.025 14.8107C157.062 14.0699 157.104 13.4384 157.153 12.9162L157.098 12.8797C156.732 13.8877 156.427 14.6711 156.184 15.2297L153.092 22.2068H151.226V9.45496Z" fill="#23236B"/>
<path d="M164.942 16.6324L164.1 17.8894V22.2068H162.271V9.45496H164.1V14.9929L164.942 13.4991L167.503 9.45496H169.662L166.003 15.0111L170.192 22.2068H168.07L164.942 16.6324Z" fill="#23236B"/>
<path d="M175.614 22.4436C174.394 22.4436 173.437 22.0671 172.742 21.3141C172.047 20.549 171.699 19.4985 171.699 18.1626V13.4991C171.699 12.1632 172.047 11.1188 172.742 10.3658C173.437 9.60069 174.394 9.21814 175.614 9.21814C176.834 9.21814 177.791 9.60069 178.486 10.3658C179.182 11.1188 179.529 12.1632 179.529 13.4991V18.1626C179.529 19.4985 179.182 20.549 178.486 21.3141C177.791 22.0671 176.834 22.4436 175.614 22.4436ZM175.614 20.6401C176.273 20.6401 176.773 20.4276 177.114 20.0025C177.456 19.5775 177.627 18.9642 177.627 18.1626V13.4991C177.627 12.6976 177.456 12.0843 177.114 11.6592C176.773 11.2341 176.273 11.0216 175.614 11.0216C174.955 11.0216 174.455 11.2341 174.114 11.6592C173.772 12.0843 173.602 12.6976 173.602 13.4991V18.1626C173.602 18.9642 173.772 19.5775 174.114 20.0025C174.455 20.4276 174.955 20.6401 175.614 20.6401Z" fill="#23236B"/>
<path d="M188.225 15.6487C188.774 15.8794 189.207 16.2499 189.524 16.7599C189.841 17.27 190 17.8712 190 18.5634C190 19.6928 189.665 20.5855 188.994 21.2413C188.323 21.8849 187.426 22.2068 186.304 22.2068H182.645V9.45496H186.121C187.158 9.45496 187.981 9.77072 188.591 10.4022C189.213 11.0216 189.524 11.8596 189.524 12.9162C189.524 13.5234 189.408 14.0699 189.177 14.5557C188.945 15.0293 188.628 15.3937 188.225 15.6487ZM184.493 11.1856V14.8472H185.957C187.079 14.8472 187.64 14.2217 187.64 12.9708C187.64 12.3636 187.5 11.9142 187.219 11.6228C186.939 11.3313 186.5 11.1856 185.902 11.1856H184.493ZM186.067 20.4762C187.433 20.4762 188.116 19.8386 188.116 18.5634C188.116 17.9197 187.927 17.4279 187.548 17.0878C187.17 16.7478 186.652 16.5778 185.993 16.5778H184.493V20.4762H186.067Z" fill="#23236B"/>
<rect x="88.8623" y="26.6748" width="65.9933" height="4.55422" rx="0.580449" fill="#5CA4F9"/>
<rect x="53.5787" y="42.2893" width="43.1243" height="3.25301" rx="0.580449" fill="#5CA4F9"/>
<rect y="49.4457" width="59.4593" height="4.55422" rx="0.580449" fill="#23236B"/>
<rect x="24.1758" y="34.4819" width="103.237" height="5.20482" rx="0.580449" fill="#23236B"/>
</svg>
