<svg width="80" height="80" viewBox="0 0 80 80" fill="none" xmlns="http://www.w3.org/2000/svg">
<path fill-rule="evenodd" clip-rule="evenodd" d="M52.9277 0C53.5836 0 61.0164 1.18433 62.582 1.53814C63.0013 1.63321 63.3447 1.86716 63.3447 2.05798C63.3447 2.99037 60.0818 12.0803 58.7738 14.7923C52.9758 26.8132 44.2319 32.4333 35.0531 30.0385C27.7081 28.1221 22.5986 20.845 22.7108 12.4606L22.7528 9.33748L23.0576 11.4678C24.0975 18.7324 29.304 24.7837 35.2551 25.6435C37.2425 25.9307 40.3898 25.3029 42.1992 24.2584C44.2682 23.0643 46.9226 19.9605 48.2327 17.2037C50.059 13.3608 51.5118 7.69307 52.0115 2.4617C52.2179 0.300497 52.3297 0 52.9277 0ZM36.3363 16.6544C39.681 16.6544 42.3924 13.943 42.3924 10.5983C42.3924 7.25354 39.681 4.54211 36.3363 4.54211C32.9916 4.54211 30.2802 7.25354 30.2802 10.5983C30.2802 13.943 32.9916 16.6544 36.3363 16.6544Z" fill="#FF5A08"/>
<path fill-rule="evenodd" clip-rule="evenodd" d="M79.9987 52.9299C79.9987 53.5858 78.8143 61.0186 78.4605 62.5842C78.3654 63.0035 78.1315 63.3469 77.9407 63.3469C77.0083 63.3469 67.9183 60.084 65.2064 58.776C53.1855 52.978 47.5653 44.2341 49.9601 35.0553C51.8765 27.7103 59.1537 22.6008 67.538 22.713L70.6612 22.755L68.5309 23.0598C61.2663 24.0997 55.2149 29.3062 54.3552 35.2573C54.068 37.2447 54.6958 40.392 55.7402 42.2013C56.9344 44.2704 60.0382 46.9248 62.7949 48.2349C66.6379 50.0612 72.3056 51.514 77.537 52.0137C79.6982 52.2201 79.9987 52.3319 79.9987 52.9299ZM68.1306 42.3937C71.4753 42.3937 74.1868 39.6822 74.1868 36.3375C74.1868 32.9928 71.4753 30.2814 68.1306 30.2814C64.7859 30.2814 62.0745 32.9928 62.0745 36.3375C62.0745 39.6822 64.7859 42.3937 68.1306 42.3937Z" fill="#B1CB2C"/>
<path fill-rule="evenodd" clip-rule="evenodd" d="M27.0713 80.0001C26.4154 80.0001 18.9826 78.8158 17.417 78.462C16.9977 78.3669 16.6543 78.133 16.6543 77.9421C16.6543 77.0098 19.9172 67.9198 21.2252 65.2079C27.0232 53.1869 35.7671 47.5668 44.9459 49.9616C52.2909 51.878 57.4004 59.1551 57.2882 67.5395L57.2462 70.6626L56.9414 68.5323C55.9015 61.2678 50.695 55.2164 44.7438 54.3567C42.7565 54.0694 39.6092 54.6972 37.7998 55.7417C35.7308 56.9359 33.0764 60.0396 31.7663 62.7964C29.94 66.6394 28.4872 72.3071 27.9875 77.5384C27.7811 79.6996 27.6692 80.0001 27.0713 80.0001ZM43.907 75.7018C47.2517 75.7018 49.9631 72.9904 49.9631 69.6456C49.9631 66.3009 47.2517 63.5895 43.907 63.5895C40.5622 63.5895 37.8508 66.3009 37.8508 69.6456C37.8508 72.9904 40.5622 75.7018 43.907 75.7018Z" fill="#237CF2"/>
<path fill-rule="evenodd" clip-rule="evenodd" d="M0 27.0713C0 26.4154 1.18433 18.9826 1.53814 17.417C1.63321 16.9977 1.86716 16.6543 2.05798 16.6543C2.99037 16.6543 12.0803 19.9172 14.7923 21.2252C26.8132 27.0232 32.4333 35.7671 30.0385 44.9459C28.1221 52.2909 20.845 57.4004 12.4606 57.2882L9.33748 57.2462L11.4678 56.9414C18.7323 55.9015 24.7837 50.695 25.6434 44.7439C25.9307 42.7565 25.3029 39.6092 24.2584 37.7998C23.0643 35.7308 19.9605 33.0764 17.2037 31.7663C13.3608 29.94 7.69307 28.4872 2.4617 27.9875C0.300495 27.7811 -1.9259e-06 27.6692 0 27.0713ZM10.5983 49.9632C13.943 49.9632 16.6544 47.2517 16.6544 43.907C16.6544 40.5623 13.943 37.8509 10.5983 37.8509C7.25354 37.8509 4.54211 40.5623 4.54211 43.907C4.54211 47.2517 7.25354 49.9632 10.5983 49.9632Z" fill="#535257"/>
</svg>
