<svg width="54" height="90" viewBox="0 0 54 90" fill="none" xmlns="http://www.w3.org/2000/svg">
<path d="M49.7595 16.2475C47.8512 7.89383 43.0689 1.0985 42.4098 0C41.3675 1.55833 37.5535 7.56173 35.6145 14.2038C33.4967 21.6378 33.185 28.2288 33.9156 34.692C34.6412 41.1808 37.3823 47.8484 37.3823 47.8484C38.8384 51.3227 41.0201 55.0781 42.4405 56.9174C44.5225 54.2095 49.3074 46.1368 50.7993 35.6117C51.6295 29.736 51.6653 24.6012 49.7595 16.2475ZM42.4098 54.8226C41.4723 53.0599 40.0161 49.7133 39.8782 44.5019C39.8424 39.4948 41.8529 35.1774 42.4405 34.2833C42.9642 35.1774 44.6962 38.9327 44.9032 44.0676C45.0437 49.0747 43.3781 53.0343 42.4098 54.8226ZM49.2052 30.4258C49.1337 33.6191 48.753 36.9912 48.2676 39.0094C48.4413 35.5351 48.0249 30.6557 47.2279 26.8237C46.4308 23.0173 44.1751 16.6307 42.3741 13.6929C40.711 16.503 38.6622 22.021 37.5892 26.7982C36.5112 31.5754 36.4805 37.3744 36.4805 39.1116C36.1944 37.6554 35.4791 32.4184 35.6809 27.1814C35.8495 22.864 36.8611 18.3934 37.4155 16.3497C39.5307 9.52882 41.9244 5.16037 42.3741 4.47061C42.8237 5.16037 45.8382 10.5507 47.4016 16.1964C48.9574 21.8422 49.2716 27.258 49.2052 30.4258Z" fill="black"/>
<path d="M45.6463 58.8589H31.1385V68.5921C31.1513 68.5921 31.1615 68.5666 31.1743 68.5666C34.5924 65.1434 40.136 65.1434 43.5566 68.5666C46.9747 71.9643 46.9747 77.5078 43.5566 80.931C43.5413 80.9566 43.526 80.9566 43.5107 80.9821C43.4928 80.9821 43.4749 81.0077 43.4596 81.0332C40.0491 84.4053 35.5938 86.0914 31.1385 86.0914C26.6628 86.0914 22.1871 84.4053 18.7741 80.9821C12.7553 74.9787 12.0426 65.6543 16.6307 58.8589C17.2489 57.9393 17.9617 57.0707 18.7741 56.2532C22.1871 52.83 26.6628 51.1439 31.1385 51.1439V27.7434C13.9407 27.7434 0 41.6662 0 58.8589C0 76.0517 13.9407 90 31.1385 90C40.1053 90 48.1831 86.1936 53.8646 80.1391V58.8589H45.6463Z" fill="black"/>
</svg>
