<svg width="78" height="60" viewBox="0 0 78 60" fill="none" xmlns="http://www.w3.org/2000/svg">
<g clip-path="url(#clip0_2191_5849)">
<path fill-rule="evenodd" clip-rule="evenodd" d="M69.4849 41.8828C69.5915 41.8828 69.8046 41.7762 70.1243 41.7762C69.8046 41.8828 69.698 41.8828 69.4849 41.8828ZM49.7691 54.032C49.6625 54.032 49.6625 54.032 49.7691 54.032V54.032ZM58.508 37.7265C56.9094 37.833 55.6306 37.7265 54.5648 37.5133C51.794 36.8739 50.4085 35.0622 49.6625 32.5044C49.3428 31.2256 49.1297 29.7336 49.1297 28.135C49.1297 26.7496 49.3428 25.4707 49.6625 24.2984C50.6217 20.675 53.1794 18.6501 56.27 18.2238C57.016 18.1172 57.762 18.1172 58.508 18.2238V17.9041C58.508 17.6909 58.508 17.4778 58.4014 17.2647C58.4014 17.0515 58.2948 16.8384 58.1883 16.6252C57.762 15.8792 56.9094 15.6661 56.27 15.6661C56.1634 15.6661 55.9503 15.6661 55.8437 15.5595C55.6306 15.5595 55.4174 15.3464 55.4174 14.9201C55.4174 14.0675 56.0568 14.0675 56.3766 14.0675C57.9751 14.0675 59.5737 14.2806 61.1723 14.2806C62.7709 14.2806 64.3695 14.0675 65.968 14.0675C66.2877 14.0675 66.9272 14.0675 66.9272 14.9201C66.9272 15.3464 66.714 15.5595 66.3943 15.6661C66.2877 15.6661 66.0746 15.6661 65.968 15.6661C65.0089 15.6661 64.476 16.0924 64.1563 16.6252C64.0497 16.8384 63.9432 17.1581 63.9432 17.3712C63.9432 17.5844 63.8366 17.7975 63.8366 18.0107V18.3304C64.9023 18.2238 65.8615 18.3304 66.6075 18.4369C67.2469 18.5435 67.8863 18.6501 68.4192 18.8632C72.1492 20.2487 73.2149 24.0853 73.2149 28.5613C73.2149 35.595 68.952 38.4725 63.73 37.833V38.8988C63.73 39.6448 64.2629 40.7105 65.8615 40.817C66.0746 40.817 66.3943 40.817 66.6075 41.0302C66.6075 41.0302 66.6075 41.0302 66.6075 41.1368C66.6075 41.2433 66.714 41.2433 66.714 41.3499C66.714 41.4565 66.714 41.4565 66.714 41.563C66.714 41.7762 66.714 41.8828 66.6075 42.0959C66.3943 42.5222 65.968 42.5222 65.7549 42.5222C64.1563 42.5222 62.5577 42.3091 60.9591 42.3091C59.3606 42.3091 57.762 42.5222 56.1634 42.5222C56.0568 42.5222 55.9503 42.5222 55.8437 42.5222C55.524 42.5222 55.0977 42.3091 55.0977 41.6696C55.0977 40.9236 55.6306 40.9236 55.9503 40.9236C56.5897 40.9236 57.016 40.7105 57.3357 40.4973C57.8686 40.071 58.0817 39.5382 58.0817 38.8988V37.7265H58.508ZM64.0497 19.929V35.9147C65.968 36.2345 67.0338 35.3819 67.5666 33.4636C67.9929 32.1847 68.0995 30.2664 68.0995 28.0284C68.0995 26.7496 67.9929 25.5773 67.8863 24.6181C67.46 21.6341 66.2877 20.3552 64.0497 19.929ZM54.3517 27.9218C54.3517 33.2504 55.7371 36.341 58.4014 36.1279V19.929C55.3108 19.6092 54.3517 22.2735 54.3517 27.9218ZM22.0604 42.6288V38.6856C20.5684 41.4565 17.7975 44.2273 12.6821 44.2273C10.3375 44.2273 7.46004 43.8011 5.00888 43.8011C3.4103 43.8011 1.81172 44.0142 0.213144 44.0142C1.38544 45.5062 2.45115 46.3588 2.87744 46.2522C4.47602 46.2522 5.54174 46.0391 7.14032 46.0391C9.4849 46.0391 12.3623 46.4654 14.8135 46.4654C18.5435 46.1456 20.675 44.5471 22.0604 42.6288ZM13.5346 19.8224C13.5346 19.8224 13.9609 19.8224 14.6004 20.0355C13.5346 17.6909 12.3623 17.7975 11.2966 17.6909C10.0178 17.5844 10.3375 17.3712 10.3375 18.7567V22.913C10.3375 23.659 10.3375 24.1918 11.4032 24.0853C12.0426 23.9787 12.2558 23.8721 12.5755 23.7655V20.7815C12.6821 19.6092 12.3623 19.8224 13.5346 19.8224ZM17.3712 23.5524C17.4778 23.7655 17.4778 23.9787 17.5844 24.1918C17.5844 24.2984 17.6909 24.405 17.6909 24.5115C18.4369 24.8313 19.1829 25.3641 19.7158 25.7904C20.7815 25.7904 21.7407 24.8313 21.9538 24.405C21.9538 24.405 21.9538 24.405 21.9538 24.2984V16.1989C21.6341 15.7726 20.9947 15.0266 19.929 14.0675C19.929 14.6004 19.929 16.1989 19.929 16.4121C19.929 17.3712 19.929 18.3304 19.929 19.3961C19.929 20.0355 19.929 20.675 19.929 21.3144C19.929 21.6341 19.929 21.8472 19.8224 22.167C19.6092 22.6998 18.5435 23.659 17.4778 23.5524C17.4778 23.659 17.3712 23.5524 17.3712 23.5524ZM77.6909 30.7993C77.6909 26.5364 76.5187 22.3801 73.4281 20.2487C74.9201 22.4867 75.4529 25.5773 75.4529 28.5613C75.4529 34.7424 71.9361 38.7922 67.46 39.5382C68.0995 39.5382 68.952 39.7513 69.0586 41.1368C69.0586 41.3499 69.0586 41.6696 69.0586 41.8828C69.1652 41.8828 69.3783 41.7762 69.6981 41.7762C74.0675 41.0302 77.6909 36.9805 77.6909 30.7993ZM66.5009 44.2273C64.7957 44.2273 62.984 44.0142 61.2789 44.0142C59.5737 44.0142 57.762 44.2273 56.0568 44.2273C55.9503 44.2273 55.6306 44.3339 55.3108 44.2273C57.3357 46.7851 57.5488 46.3588 57.8686 46.4654C59.5737 46.4654 61.7052 46.2522 63.5169 46.2522C65.222 46.2522 67.0337 46.4654 68.7389 46.4654C69.0586 46.4654 71.4032 47.1048 71.1901 43.4813C71.0835 41.9893 70.2309 41.7762 69.5915 41.8828C69.3783 41.8828 69.1652 41.9893 68.952 41.9893C68.8455 44.7602 66.8206 44.2273 66.5009 44.2273ZM55.7371 27.9218C55.7371 33.5702 57.016 33.9964 57.1226 34.6359V21.5275C56.5897 21.6341 55.7371 22.0604 55.7371 27.9218ZM66.6075 28.0284C66.6075 22.3801 65.7549 21.8472 65.222 21.5275V34.5293C66.1812 33.8899 66.6075 32.3979 66.6075 28.0284ZM47.2114 9.80462V26.8561C47.4245 24.1918 48.2771 21.8472 49.6625 20.1421V10.0178C49.6625 5.3286 49.6625 5.43517 52.0071 5.11545C52.9663 4.90231 53.0728 3.83659 52.9663 2.45115C53.0728 1.91829 50.7282 0.106572 50.6217 0C50.6217 0.213144 50.6217 0.426288 50.6217 0.746003C50.6217 1.91829 50.7282 2.98401 49.556 3.19716C46.6785 3.4103 47.2114 4.26288 47.2114 9.80462ZM36.9805 5.64831C36.9805 5.00888 36.9805 4.04973 35.8082 4.04973H33.1439C31.5453 4.04973 31.6519 4.68916 31.6519 5.43517V49.5559C31.6519 52.2202 32.0782 52.3268 34.103 52.6465V7.77975C34.103 6.92718 34.103 6.39432 35.595 6.39432H36.9805V5.64831ZM49.556 52.6465C49.556 52.4334 49.556 52.2202 49.556 51.9005V36.6607C48.0639 34.849 47.3179 32.2913 47.1048 29.627V49.6625C47.2114 52.2202 46.7851 52.0071 49.556 52.6465ZM50.6217 54.1385C50.6217 54.4583 50.6217 54.778 50.6217 55.2043C50.5151 56.8028 49.556 57.6554 48.7034 57.6554C46.6785 57.6554 44.7602 57.4423 42.7353 57.4423C41.1368 57.4423 39.0053 57.6554 37.1936 57.6554C36.7673 57.6554 36.2345 57.6554 35.8082 57.6554C35.3819 57.6554 34.7425 57.2291 34.2096 56.5897C33.7833 57.2291 33.1439 57.6554 32.8242 57.6554C30.7993 57.6554 27.8153 57.3357 25.7904 57.3357C24.0853 57.3357 22.2735 57.5488 20.5684 57.5488C22.4867 59.8934 22.913 59.7868 23.3393 59.7868C25.3641 59.7868 26.3233 59.4671 28.2416 59.4671C30.2664 59.4671 33.2504 59.7868 35.2753 59.7868C35.7016 59.7868 36.341 59.3606 36.7673 58.8277C37.3002 59.3606 37.9396 59.7868 38.3659 59.7868C40.3908 59.7868 43.3748 59.4671 45.2931 59.4671C47.3179 59.4671 48.3837 59.6803 50.4085 59.6803C51.5808 59.5737 52.54 58.7211 52.6465 56.0568C52.54 55.8437 51.5808 54.778 50.6217 54.1385ZM20.9947 55.7371C22.8064 55.7371 24.6181 55.524 26.4298 55.524C28.2416 55.524 30.0533 55.7371 31.865 55.7371C32.1847 55.7371 32.9307 55.7371 32.9307 54.778C32.9307 54.032 32.2913 54.032 31.9716 54.032C30.1599 53.9254 29.5204 52.54 29.5204 49.9822V3.4103C29.5204 2.6643 29.5204 2.02487 30.9059 2.02487H37.7265C38.7922 2.02487 38.7922 2.98401 38.7922 3.62345V49.9822C38.7922 52.54 38.2593 53.9254 36.341 54.032C36.0213 54.032 35.3819 54.032 35.3819 54.778C35.3819 55.2043 35.595 55.524 35.8082 55.6305C36.0213 55.6305 36.2345 55.6305 36.4476 55.7371C36.4476 55.7371 36.4476 55.7371 36.5542 55.7371C38.3659 55.7371 40.1776 55.524 41.8828 55.524C43.6945 55.524 45.5062 55.7371 47.3179 55.7371C47.6377 55.7371 48.3837 55.7371 48.3837 54.778C48.3837 54.032 47.7442 54.032 47.4245 54.032C45.6128 53.9254 44.9734 52.54 44.9734 49.9822V5.75488C44.9734 3.19716 45.5062 1.81172 47.4245 1.70515C47.7442 1.70515 48.3837 1.70515 48.3837 0.959147C48.3837 0.53286 48.2771 0.319716 48.0639 0.213144C48.0639 0 47.7442 0 47.5311 0C46.0391 0 44.6536 0.106572 43.1616 0.213144C42.8419 0.213144 42.4156 0.213144 42.0959 0.213144C40.7105 0.213144 39.2185 0.106572 37.833 0C37.4067 0 37.087 0 36.6607 0H31.9716C30.1599 0 28.4547 0.213144 26.643 0.213144H26.5364C25.151 0.213144 23.659 0.106572 22.2735 0C21.8472 0 21.5275 0 21.1012 0C20.7815 0 20.0355 0 20.0355 0.959147C20.0355 1.70515 20.675 1.70515 20.9947 1.70515C21.6341 1.70515 22.167 1.91829 22.4867 2.34458C23.1261 2.98401 23.3393 4.04973 23.4458 5.64831C23.4458 5.75488 23.4458 5.75488 23.4458 5.86146V49.9822C23.4458 52.54 22.913 53.9254 20.9947 54.032C20.675 54.032 20.0355 54.032 20.0355 54.778C20.0355 55.524 20.4618 55.6305 20.7815 55.7371H20.9947ZM0.959147 42.0959C0.852575 42.0959 0.53286 42.0959 0.319716 41.9893C0.106572 41.8828 0 41.6696 0 41.2433C0 40.4973 0.53286 40.4973 0.852575 40.4973C2.87744 40.2842 2.98401 38.0462 2.98401 36.6607V19.8224C2.98401 19.7158 2.98401 19.5027 2.98401 19.3961C2.98401 18.1172 2.77087 16.4121 1.38544 15.9858C1.27886 15.9858 1.06572 15.8792 0.959147 15.8792C0.639432 15.8792 0.106572 15.8792 0.106572 15.1332C0.106572 14.1741 0.746004 14.1741 1.06572 14.1741C5.3286 14.1741 5.75488 14.4938 8.52575 14.3872L12.2558 14.2806C13.3215 14.2806 14.4938 14.1741 15.5595 14.1741H16.1989C16.8384 14.1741 17.1581 14.0675 17.4778 14.0675C17.7975 14.0675 17.9041 14.1741 18.0107 14.3872C18.1172 14.6004 18.1172 14.8135 18.1172 15.1332C18.1172 15.3464 18.1172 15.5595 18.1172 15.7726C18.1172 16.7318 18.1172 17.5844 18.1172 18.5435C18.1172 19.0764 18.1172 19.7158 18.2238 20.2487C18.2238 20.5684 18.2238 20.7815 18.2238 21.1012C18.1172 21.6341 17.9041 21.8472 17.5844 21.8472C17.2647 21.8472 16.9449 21.6341 16.5187 20.3552C15.8792 18.7567 15.3464 16.3055 12.3623 16.3055H10.2309C7.77975 16.3055 8.63233 16.5186 8.63233 17.9041V25.151C8.63233 25.897 8.63233 26.3233 9.59147 26.3233C10.444 26.2167 11.5098 26.0035 12.8952 25.897C13.1083 25.897 13.3215 25.897 13.5346 25.897C14.9201 25.897 16.1989 26.1101 17.2647 26.5364C20.3552 27.8153 21.6341 30.6927 21.6341 33.7833C21.6341 36.341 20.4618 42.4156 12.8952 42.4156C10.7638 42.4156 8.20604 41.9893 5.96803 41.9893C4.15631 41.8828 2.55773 42.0959 0.959147 42.0959ZM8.52575 29.0941V35.3819C8.52575 38.0462 9.27176 40.7105 12.4689 40.7105C12.7886 40.7105 13.0018 40.7105 13.2149 40.6039C15.7726 39.9645 16.1989 35.9147 16.1989 33.5702C16.1989 33.357 16.1989 32.8242 16.0924 32.1847C15.7726 30.373 14.9201 27.6021 11.9361 27.6021C9.69805 27.6021 8.52575 28.2416 8.52575 29.0941ZM12.3623 38.7922C12.4689 38.7922 12.5755 38.7922 12.6821 38.7922C12.6821 38.6856 12.6821 38.6856 12.6821 38.579V32.5044C12.8952 32.2913 13.1083 31.9716 14.3872 31.7584C14.0675 30.4796 13.4281 29.2007 11.8295 29.4139C10.2309 29.5204 10.444 29.9467 10.3375 30.1599V35.8082C10.3375 38.6856 11.8295 38.7922 12.3623 38.7922ZM36.9805 55.7371C36.9805 55.7371 36.9805 55.6305 36.9805 55.7371C36.7673 55.6305 36.5542 55.6305 36.4476 55.6305C36.5542 55.7371 36.7673 55.7371 36.9805 55.7371ZM36.9805 55.6305C36.9805 55.6305 36.9805 55.7371 36.9805 55.6305H37.087C37.087 55.7371 37.087 55.7371 36.9805 55.6305C37.087 55.6305 37.087 55.6305 36.9805 55.6305Z" fill="black"/>
</g>
<defs>
<clipPath id="clip0_2191_5849">
<rect width="77.6909" height="60" fill="white"/>
</clipPath>
</defs>
</svg>
