<svg width="75" height="100" viewBox="0 0 75 100" fill="none" xmlns="http://www.w3.org/2000/svg">
<path fill-rule="evenodd" clip-rule="evenodd" d="M31.9575 21.918L26.8276 27.0478V84.8105L31.9575 79.6806V21.918Z" fill="black"/>
<path fill-rule="evenodd" clip-rule="evenodd" d="M47.8134 32.644L42.6835 37.7739V99.7667L47.8134 94.6369V32.644Z" fill="black"/>
<path fill-rule="evenodd" clip-rule="evenodd" d="M34.7559 0L39.8857 5.12986V69.7665L34.7559 64.6367V0Z" fill="black"/>
<path d="M0 94.8702L0 100L74.6407 100L74.6407 94.8702L0 94.8702Z" fill="black"/>
<path fill-rule="evenodd" clip-rule="evenodd" d="M50.6115 51.0195C58.4765 55.549 63.7715 64.0399 63.7715 73.7674C63.7715 88.2546 52.0271 99.9991 37.5399 99.9991C23.0524 99.9991 11.3079 88.2546 11.3079 73.7674C11.3079 64.2216 16.4074 55.8675 24.0301 51.2784V57.5564C19.3904 61.4275 16.4375 67.2519 16.4375 73.7669C16.4375 85.4215 25.8855 94.8695 37.5401 94.8695C49.1947 94.8695 58.6428 85.4215 58.6428 73.7669C58.6428 67.0489 55.5029 61.0645 50.6115 57.1998V51.0195Z" fill="black"/>
</svg>
