<svg width="70" height="70" viewBox="0 0 70 70" fill="none" xmlns="http://www.w3.org/2000/svg">
<path d="M27.9205 0.680388C29.8088 0.298226 31.7302 0.086687 33.6567 0C31.5977 7.62433 28.4709 14.9658 24.3454 21.7008C25.3545 23.9916 26.4783 26.2289 27.6632 28.4333C33.4527 19.9018 37.744 10.3612 40.2769 0.364491C42.0377 0.644757 43.7807 1.04741 45.4855 1.57492C42.6009 13.0395 37.5096 23.9306 30.6165 33.5298C31.8448 35.5021 33.1368 37.4311 34.4925 39.3193C42.3588 28.8155 48.1433 16.7598 51.3592 4.03395C53.0079 4.92581 54.5929 5.92984 56.0913 7.05105C52.5085 20.3222 46.2347 32.8366 37.8536 43.7226C39.2551 45.458 40.7152 47.1424 42.2187 48.7885C50.7298 37.7725 57.0979 25.1358 61.0195 11.7857C61.7763 12.308 62.2707 13.1005 62.8415 13.8039C63.5806 14.8002 64.3322 15.7991 64.9284 16.8924C64.9336 17.4326 64.638 17.9371 64.4952 18.4519C60.074 31.3867 53.3671 43.529 44.7795 54.1628C44.7847 59.4403 44.777 64.7176 44.7821 69.9975C43.0034 70.0026 41.2248 69.9975 39.4462 70.0001C39.4359 64.5265 39.4614 59.0554 39.4333 53.5843C27.0719 40.6647 18.0817 24.5447 13.6427 7.21921C15.141 6.07765 16.7235 5.04559 18.3798 4.14099C19.3074 7.97093 20.4413 11.75 21.7919 15.4526C24.335 10.7562 26.3813 5.79478 27.9204 0.68046L27.9205 0.680388ZM8.22022 12.4023C8.42154 12.15 8.68653 11.964 8.95159 11.7881C13.704 28.0738 22.1947 43.2512 33.6337 55.7834C33.6286 60.5232 33.6312 65.2603 33.6337 70C31.8551 70 30.0763 70 28.2977 70C28.2952 65.9406 28.2952 61.8813 28.2977 57.8245C17.8653 45.9574 9.86893 31.9651 4.95595 16.9484C5.92681 15.3532 7.02 13.8318 8.22022 12.4023ZM1.39352 25.0976C1.684 25.2199 1.88526 25.4569 1.97701 25.7576C6.01089 35.9785 11.4794 45.621 18.0844 54.3997C16.6625 55.47 15.2406 56.5427 13.8212 57.613C8.44443 50.4371 3.71235 42.7415 0.00218543 34.577C-0.0360525 31.3763 0.48378 28.1656 1.39352 25.0976ZM66.4907 29.4372C67.1481 27.9796 67.6858 26.4736 68.3585 25.0263C68.8273 25.6532 68.9268 26.4456 69.1077 27.1872C69.6174 29.4424 69.9078 31.7485 69.974 34.0598C70.0072 34.465 69.9231 34.8624 69.7345 35.2218C65.9861 43.1187 61.4324 50.6335 56.1703 57.613C54.7484 56.5428 53.329 55.47 51.9071 54.3997C57.717 46.6812 62.6402 38.2949 66.4906 29.4373L66.4907 29.4372Z" fill="black"/>
</svg>
