<svg width="190" height="54" viewBox="0 0 190 54" fill="none" xmlns="http://www.w3.org/2000/svg">
<path d="M35.2813 1.8132C35.2838 1.17206 35.804 0.651942 36.4451 0.642624C40.5097 0.58355 43.7052 0.230748 47.4829 0.0746754C49.4047 -0.00472347 50.9674 1.56256 50.9446 3.48586C50.838 12.492 50.3513 18.5764 50.314 28.1155C50.3115 28.7566 49.7914 29.2767 49.1503 29.2861C45.0857 29.3451 41.8901 29.6979 38.1125 29.854C36.1907 29.9334 34.628 28.3661 34.6507 26.4428C34.7574 17.4367 35.244 11.3523 35.2813 1.8132Z" fill="white"/>
<path d="M65.3634 20.4768V24.3388H63.5522V22.2074H57.4599V24.3388H55.6487V20.4768H56.3988C56.8379 20.0274 57.1794 19.3716 57.4233 18.5094C57.6673 17.6471 57.8075 16.6816 57.8441 15.6129L58.0637 9.45557H64.2291V20.4768H65.3634ZM62.3996 11.1862H59.8017L59.6188 16.1229C59.5456 17.9689 59.2102 19.4202 58.6125 20.4768H62.3996V11.1862Z" fill="white"/>
<path d="M74.3585 20.4768V22.2074H67.9003V9.45557H74.1756V11.1862H69.7481V14.8842H73.828V16.5784H69.7481V20.4768H74.3585Z" fill="white"/>
<path d="M79.9191 16.633L79.0775 17.89V22.2074H77.248V9.45557H79.0775V14.9935L79.9191 13.4997L82.4804 9.45557H84.6393L80.9802 15.0117L85.1698 22.2074H83.0476L79.9191 16.633Z" fill="white"/>
<path d="M90.5916 22.4442C89.372 22.4442 88.4145 22.0677 87.7193 21.3148C87.0241 20.5496 86.6765 19.4991 86.6765 18.1632V13.4997C86.6765 12.1638 87.0241 11.1194 87.7193 10.3664C88.4145 9.6013 89.372 9.21875 90.5916 9.21875C91.8113 9.21875 92.7688 9.6013 93.464 10.3664C94.1592 11.1194 94.5068 12.1638 94.5068 13.4997V18.1632C94.5068 19.4991 94.1592 20.5496 93.464 21.3148C92.7688 22.0677 91.8113 22.4442 90.5916 22.4442ZM90.5916 20.6407C91.2503 20.6407 91.7503 20.4282 92.0918 20.0031C92.4333 19.5781 92.6041 18.9648 92.6041 18.1632V13.4997C92.6041 12.6982 92.4333 12.0849 92.0918 11.6598C91.7503 11.2348 91.2503 11.0222 90.5916 11.0222C89.933 11.0222 89.4329 11.2348 89.0914 11.6598C88.7499 12.0849 88.5792 12.6982 88.5792 13.4997V18.1632C88.5792 18.9648 88.7499 19.5781 89.0914 20.0031C89.4329 20.4282 89.933 20.6407 90.5916 20.6407Z" fill="white"/>
<path d="M101.007 9.45557C102.264 9.45557 103.233 9.81991 103.916 10.5486C104.599 11.2651 104.941 12.2731 104.941 13.5726C104.941 14.9085 104.599 15.9347 103.916 16.6512C103.233 17.3678 102.264 17.726 101.007 17.726H99.4707V22.2074H97.6228V9.45557H101.007ZM100.989 15.9772C101.684 15.9772 102.203 15.7829 102.544 15.3943C102.886 14.9935 103.057 14.3863 103.057 13.5726C103.057 11.9938 102.367 11.2044 100.989 11.2044H99.4707V15.9772H100.989Z" fill="white"/>
<path d="M115.896 22.426C114.75 22.426 113.841 22.0799 113.17 21.3876C112.512 20.6954 112.183 19.7177 112.183 18.4547V13.2082C112.183 11.9331 112.512 10.9494 113.17 10.2571C113.829 9.56487 114.732 9.21875 115.878 9.21875C117.049 9.21875 117.964 9.5588 118.622 10.2389C119.281 10.9068 119.635 11.8723 119.684 13.1354H117.854C117.805 12.3946 117.616 11.8481 117.287 11.4959C116.958 11.1437 116.482 10.9676 115.86 10.9676C115.299 10.9676 114.86 11.1558 114.543 11.5323C114.225 11.9088 114.067 12.4674 114.067 13.2082V18.4547C114.067 19.1955 114.225 19.7542 114.543 20.1307C114.872 20.495 115.323 20.6772 115.896 20.6772C116.518 20.6772 116.994 20.5011 117.323 20.1489C117.665 19.7967 117.866 19.2562 117.927 18.5276H119.757C119.696 19.7785 119.33 20.744 118.659 21.4241C118 22.092 117.08 22.426 115.896 22.426Z" fill="white"/>
<path d="M128.926 20.4768V22.2074H122.468V9.45557H128.743V11.1862H124.316V14.8842H128.395V16.5784H124.316V20.4768H128.926Z" fill="white"/>
<path d="M139.134 22.2074H137.286V11.2044H133.663V22.2074H131.816V9.45557H139.134V22.2074Z" fill="white"/>
<path d="M148.831 11.2044H146.16V22.2074H144.276V11.2044H141.623V9.45557H148.831V11.2044Z" fill="white"/>
<path d="M151.226 9.45557H153.037V15.0299C153.037 15.5279 153.018 16.1351 152.982 16.8516C152.945 17.5681 152.897 18.1875 152.836 18.7097L152.89 18.7462C153.317 17.6289 153.622 16.8759 153.805 16.4873L156.915 9.45557H158.8V22.2074H156.989V16.6512C156.989 16.1654 157.001 15.5521 157.025 14.8113C157.062 14.0705 157.104 13.439 157.153 12.9168L157.098 12.8803C156.732 13.8883 156.427 14.6717 156.184 15.2303L153.092 22.2074H151.226V9.45557Z" fill="white"/>
<path d="M164.942 16.633L164.1 17.89V22.2074H162.271V9.45557H164.1V14.9935L164.942 13.4997L167.503 9.45557H169.662L166.003 15.0117L170.192 22.2074H168.07L164.942 16.633Z" fill="white"/>
<path d="M175.614 22.4442C174.394 22.4442 173.437 22.0677 172.742 21.3148C172.047 20.5496 171.699 19.4991 171.699 18.1632V13.4997C171.699 12.1638 172.047 11.1194 172.742 10.3664C173.437 9.6013 174.394 9.21875 175.614 9.21875C176.834 9.21875 177.791 9.6013 178.486 10.3664C179.182 11.1194 179.529 12.1638 179.529 13.4997V18.1632C179.529 19.4991 179.182 20.5496 178.486 21.3148C177.791 22.0677 176.834 22.4442 175.614 22.4442ZM175.614 20.6407C176.273 20.6407 176.773 20.4282 177.114 20.0031C177.456 19.5781 177.627 18.9648 177.627 18.1632V13.4997C177.627 12.6982 177.456 12.0849 177.114 11.6598C176.773 11.2348 176.273 11.0222 175.614 11.0222C174.956 11.0222 174.455 11.2348 174.114 11.6598C173.772 12.0849 173.602 12.6982 173.602 13.4997V18.1632C173.602 18.9648 173.772 19.5781 174.114 20.0031C174.455 20.4282 174.956 20.6407 175.614 20.6407Z" fill="white"/>
<path d="M188.225 15.6493C188.774 15.8801 189.207 16.2505 189.524 16.7605C189.841 17.2706 190 17.8718 190 18.564C190 19.6934 189.665 20.5861 188.994 21.2419C188.323 21.8855 187.426 22.2074 186.304 22.2074H182.645V9.45557H186.121C187.158 9.45557 187.981 9.77133 188.591 10.4028C189.213 11.0222 189.524 11.8602 189.524 12.9168C189.524 13.524 189.408 14.0705 189.177 14.5563C188.945 15.0299 188.628 15.3943 188.225 15.6493ZM184.493 11.1862V14.8478H185.957C187.079 14.8478 187.64 14.2223 187.64 12.9714C187.64 12.3642 187.5 11.9148 187.219 11.6234C186.939 11.3319 186.5 11.1862 185.902 11.1862H184.493ZM186.067 20.4768C187.433 20.4768 188.116 19.8392 188.116 18.564C188.116 17.9203 187.927 17.4285 187.548 17.0884C187.17 16.7484 186.652 16.5784 185.993 16.5784H184.493V20.4768H186.067Z" fill="white"/>
<rect x="88.8623" y="26.6753" width="65.9933" height="4.55422" rx="0.580449" fill="white"/>
<rect x="53.5788" y="42.2896" width="43.1243" height="3.25301" rx="0.580449" fill="white"/>
<rect x="3.05176e-05" y="49.4463" width="59.4593" height="4.55422" rx="0.580449" fill="white"/>
<rect x="24.1758" y="34.4824" width="103.237" height="5.20482" rx="0.580449" fill="white"/>
</svg>
