<svg width="80" height="80" viewBox="0 0 80 80" fill="none" xmlns="http://www.w3.org/2000/svg">
<path fill-rule="evenodd" clip-rule="evenodd" d="M34.3754 0.289255C22.7397 1.98689 12.954 8.14486 6.43185 17.8729C3.98192 21.5271 2.20812 25.5142 0.96444 30.1642C0.0600611 33.5449 0.0155223 33.995 0.00160406 39.8746C-0.0120049 45.6232 0.0442868 46.2616 0.836082 49.3175C3.08497 57.9962 7.60191 65.3484 13.8787 70.5473C26.1695 80.7276 42.7768 82.8546 57.2497 76.102C71.0263 69.6743 79.9652 55.6219 79.9999 40.337C80.0147 33.8455 78.8663 28.4348 76.3421 23.1048C70.6465 11.0765 59.5255 2.61946 46.5425 0.442773C43.4421 -0.077276 37.4074 -0.15311 34.3754 0.289255ZM42.4988 1.9724C45.626 3.54611 46.2783 8.2808 43.6942 10.6514C40.9501 13.169 36.903 12.4939 35.1759 9.23058C34.2944 7.56408 34.2635 6.09611 35.0747 4.4256C36.4019 1.69311 39.747 0.587659 42.4988 1.9724ZM38.1686 20.7715V27.6807L36.5448 28.1546C32.8256 29.2397 30.3203 31.4046 28.6986 34.9349C26.1169 40.5556 28.7407 47.7786 34.4064 50.6474C37.4303 52.1782 42.359 52.1785 45.4977 50.648C50.3258 48.2937 53.0476 42.3364 51.7788 36.9011C50.7217 32.3726 47.1171 28.8962 42.4156 27.8703L41.5594 27.6835L41.6423 20.6877L41.7255 13.6921L43.2271 13.7843C51.0761 14.2661 59.6578 20.3452 63.5215 28.1604C65.579 32.3214 66.136 34.8526 66.1348 40.0287C66.1332 45.2366 65.7513 47.0209 63.7288 51.2642C59.3915 60.364 50.1272 66.2285 40.0853 66.2306C32.9156 66.2325 26.9944 63.8937 21.8527 59.0292C17.0954 54.5282 14.4358 49.2256 13.6641 42.7027C12.5287 33.1057 16.9717 23.6461 25.1863 18.1694C28.8199 15.7471 31.7959 14.6373 37.0861 13.7319C37.4263 13.6737 37.8092 13.6792 37.9367 13.7442C38.0641 13.8093 38.1686 16.9715 38.1686 20.7715Z" fill="#B74847"/>
</svg>
