<svg width="80" height="80" viewBox="0 0 80 80" fill="none" xmlns="http://www.w3.org/2000/svg">
<path fill-rule="evenodd" clip-rule="evenodd" d="M7.75024 2.94938C1.78019 4.66135 -0.96935 10.2971 0.306616 18.2071C2.09641 29.3049 10.589 55.6706 15.309 64.7839C19.1311 72.1634 24.116 74.363 33.8557 72.9678C37.2962 72.475 48.5054 70.1839 57.3048 68.1752L63.5582 66.7477L66.4855 69.5334C71.522 74.3263 75.9535 77.4762 77.66 77.4762C79.5873 77.4762 79.2259 72.4767 76.746 64.8381C75.9902 62.5097 75.7859 61.4943 75.9734 61.0006C76.4143 59.8412 77.6821 53.0257 78.2761 48.6227C78.7751 44.9242 78.9963 42.8754 79.6127 36.2361C79.687 35.4346 79.8342 31.6968 79.94 27.9298C80.2204 17.9171 79.5605 14.1271 77.0654 11.4201C74.9326 9.10625 72.5931 8.32866 61.9806 6.40568C53.5746 4.88256 47.3582 4.15307 36.7702 3.44717C34.2054 3.27609 31.3201 3.08374 30.3583 3.01933C29.3965 2.95521 24.216 2.82726 18.846 2.73516C11.2561 2.60488 8.78576 2.65239 7.75024 2.94938ZM33.9402 18.6763C34.563 19.9986 35.7807 22.589 36.6463 24.4324C37.5116 26.2758 38.8934 29.1612 39.7164 30.8443L41.2133 33.9045L43.0183 30.1157C44.0112 28.0318 45.885 24.0643 47.1825 21.2993L49.5415 16.2718H55.761C60.1817 16.2718 61.9806 16.3668 61.9806 16.6003C61.9806 16.9162 59.8679 21.0344 55.4206 29.3871C54.2685 31.5511 52.2505 35.3822 50.9364 37.9006L48.5468 42.4796L48.4876 50.1415L48.4282 57.8034L41.2148 57.8812L34.0014 57.9593V50.3507V42.7425L29.5889 34.3889C27.162 29.7945 24.0799 23.967 22.7398 21.4389C21.3997 18.9109 20.3033 16.714 20.3033 16.5572C20.3033 16.38 22.6719 16.2718 26.5554 16.2718H32.8076L33.9402 18.6763Z" fill="#F00A0B"/>
</svg>
